<?xml version="1.0" encoding="utf-8"?>
<!-- Generator: Adobe Illustrator 22.0.1, SVG Export Plug-In . SVG Version: 6.00 Build 0)  -->
<svg version="1.1" id="Layer_1" xmlns="http://www.w3.org/2000/svg" xmlns:xlink="http://www.w3.org/1999/xlink" x="0px" y="0px"
	 viewBox="0 0 96.2 96" style="enable-background:new 0 0 96.2 96;" xml:space="preserve">
<g>
	<path d="M96.1,80.2L95,79.4l-2.5,4.1C64,53.4,48,12.4,48,12.3v0l0,0l0,0v0c0,0.1-15.9,41-44.4,71l-2.4-4l-1.1,0.9l3.1,3.4
		c0,0,0,0,0,0c0,0,0,0,0.1,0l0,0l0.1-0.1c2-0.4,16.8-3.5,32.9-0.1c0,0,2.4-5.1,1.5-13.4c5.6-4.4,9.3-12.3,10.2-18.8
		c0.9,6.5,5.5,14.7,10.2,18.8c0.1,7.8,1.5,13.3,1.5,13.3c15.6-3.3,30.1-0.5,32.7,0l0,0.1l0.4,0c0,0,0,0,0,0c0,0,0,0,0,0l0.1,0
		L96.1,80.2z"/>
</g>
</svg>
