<?xml version="1.0" encoding="utf-8"?>
<!-- Generator: Adobe Illustrator 22.0.1, SVG Export Plug-In . SVG Version: 6.00 Build 0)  -->
<svg version="1.1" id="Layer_1" xmlns="http://www.w3.org/2000/svg" xmlns:xlink="http://www.w3.org/1999/xlink" x="0px" y="0px"
	 viewBox="0 0 26.5 26.5" style="enable-background:new 0 0 26.5 26.5;" xml:space="preserve">
<g>
	<path d="M17.2,11.1l-3.3,3l-3.3-3l0.8-0.8c0.5-0.5,0.5-1.2,0-1.7L4,1.4L3.3,2.1l6,6.4C9.1,8.7,9,8.8,8.9,9L2.4,3L1.6,3.8l6,6.4
		c-0.1,0.1-0.3,0.3-0.4,0.4l-6.4-6L0.1,5.4l7.2,7.2c0.5,0.5,1.2,0.5,1.7,0l0.8-0.8l2.9,3.3l-8.3,7.4c-1.4,1.2,1,3.5,2.2,2.2l7.3-8.2
		l7.3,8.2c1.2,1.4,3.5-0.9,2.2-2.2L15,15.1l2.9-3.3c1.6,1.1,4.4,0.4,6.4-1.6c2.2-2.2,2.8-5.3,1.3-6.8c-1.5-1.5-4.6-0.9-6.8,1.3
		C16.7,6.7,16.1,9.5,17.2,11.1z"/>
</g>
</svg>
