<?xml version="1.0" encoding="utf-8"?>
<!-- Generator: Adobe Illustrator 22.0.1, SVG Export Plug-In . SVG Version: 6.00 Build 0)  -->
<svg version="1.1" xmlns="http://www.w3.org/2000/svg" xmlns:xlink="http://www.w3.org/1999/xlink" x="0px" y="0px"
	 viewBox="0 0 98 82.4" style="enable-background:new 0 0 98 82.4;" xml:space="preserve">
<style type="text/css">
	.st0{fill:#757575;}
</style>
<g id="Layer_2">
</g>
<g id="Layer_1">
	<g>
		<polygon class="st0" points="14.9,37.2 0,82.4 22.4,75.4 29.8,30.4 		"/>
		<polygon class="st0" points="24.9,75.5 47.7,82.6 47.7,37 32.4,30.1 		"/>
		<path class="st0" d="M64.8,42.8l-5.1-10.1L50.3,37v45.6l22.8-7.1l-5-30.2C66.7,45.1,65.5,44.2,64.8,42.8z"/>
		<path class="st0" d="M83.1,37.2l-5.8-2.6c-2.2,4.3-4.1,8.1-4.3,8.3c-0.5,1-1.4,1.8-2.4,2.2l5,30.3l22.4,7L83.1,37.2z"/>
		<path class="st0" d="M67.1,41.7c0.8,1.5,3,1.5,3.7,0c0,0,8.8-17.1,10.8-21.2c2-4,2.1-8.6,0-12.7c-3.5-7-12-9.8-19-6.3
			s-9.7,12.3-6.3,19C59.7,27.3,67.1,41.7,67.1,41.7z M69,6.8c4.1,0,7.4,3.3,7.4,7.4c0,4.1-3.3,7.4-7.4,7.4c-4.1,0-7.4-3.3-7.4-7.4
			S64.9,6.8,69,6.8z"/>
	</g>
</g>
</svg>
