<svg xmlns="http://www.w3.org/2000/svg" xmlns:xlink="http://www.w3.org/1999/xlink" version="1.1" x="0px" y="0px" viewBox="0 0 100 125" style="enable-background:new 0 0 100 100;" xml:space="preserve"><g><path d="M11.3,90.3c0,0,0.1,0,0.1,0c0.2,0,9.5-0.6,19.1-5.3c5.9,3.3,12.6,5.3,19.9,5.3c22.2,0,40.3-18.1,40.3-40.3   S72.6,9.7,50.4,9.7S10.1,27.8,10.1,50c0,13.3,6.5,25.1,16.5,32.5c-8.1,3.4-15.3,3.8-15.4,3.8c-1.1,0.1-1.9,1-1.9,2.1   C9.4,89.5,10.2,90.3,11.3,90.3z M64.3,19.4c6.1,0,11,4.9,11,11s-4.9,11-11,11s-11-4.9-11-11S58.2,19.4,64.3,19.4z M61.7,56.6   c0-6.1,4.9-11,11-11c6.1,0,11,4.9,11,11s-4.9,11-11,11C66.6,67.7,61.7,62.7,61.7,56.6z M55.1,50c0,2.6-2.1,4.7-4.7,4.7   s-4.7-2.1-4.7-4.7s2.1-4.7,4.7-4.7S55.1,47.4,55.1,50z M36.7,41.5c-6.1,0-11-4.9-11-11s4.9-11,11-11s11,4.9,11,11   S42.8,41.5,36.7,41.5z M28.1,45.6c6.1,0,11,4.9,11,11s-4.9,11-11,11s-11-4.9-11-11S22,45.6,28.1,45.6z M39.4,72.8   c0-6.1,4.9-11,11-11s11,4.9,11,11s-4.9,11-11,11S39.4,78.9,39.4,72.8z"/></g><text x="0" y="115" fill="#000000" font-size="5px" font-weight="bold" font-family="'Helvetica Neue', Helvetica, Arial-Unicode, Arial, Sans-serif">Created by mikicon</text><text x="0" y="120" fill="#000000" font-size="5px" font-weight="bold" font-family="'Helvetica Neue', Helvetica, Arial-Unicode, Arial, Sans-serif">from the Noun Project</text></svg>