<?xml version="1.0" encoding="utf-8"?>
<!-- Generator: Adobe Illustrator 22.0.1, SVG Export Plug-In . SVG Version: 6.00 Build 0)  -->
<svg version="1.1" id="Layer_1" xmlns="http://www.w3.org/2000/svg" xmlns:xlink="http://www.w3.org/1999/xlink" x="0px" y="0px"
	 viewBox="0 0 48.1 49.1" style="enable-background:new 0 0 48.1 49.1;" xml:space="preserve">
<style type="text/css">
	.st0{fill:#424242;}
</style>
<g>
	<g>
		<path class="st0" d="M44.1,32.1h-1c2.8,0,5,2.2,5,5v1c0,1.1-0.9,2-2,2h-44c-1.1,0-2-0.9-2-2v-1c0-2.8,2.2-5,5-5h-1
			c1.1,0,2-0.9,2-2v-12c0-9.9,8.1-18,18-18s18,8.1,18,18v12C42.1,31.2,43,32.1,44.1,32.1z M17.1,42.1h14c0,3.9-3.1,7-7,7
			S17.1,46,17.1,42.1z"/>
	</g>
</g>
</svg>
