<?xml version="1.0" encoding="utf-8"?>
<!-- Generator: Adobe Illustrator 22.0.1, SVG Export Plug-In . SVG Version: 6.00 Build 0)  -->
<svg version="1.1" id="Layer_1" xmlns="http://www.w3.org/2000/svg" xmlns:xlink="http://www.w3.org/1999/xlink" x="0px" y="0px"
	 viewBox="0 0 61.3 61.3" style="enable-background:new 0 0 61.3 61.3;" xml:space="preserve">
<style type="text/css">
	.st0{fill:#757575;}
</style>
<g>
	<path class="st0" d="M38.2,30.7c0,4.1-3.4,7.5-7.5,7.5s-7.5-3.4-7.5-7.5s3.4-7.5,7.5-7.5S38.2,26.5,38.2,30.7z M60.7,31.8
		C54,41.4,43.1,47.7,30.7,47.7S7.3,41.4,0.6,31.8c-0.5-0.7-0.5-1.6,0-2.2c6.7-9.6,17.7-15.9,30.1-15.9S54,19.9,60.7,29.5
		C61.2,30.2,61.2,31.1,60.7,31.8z M41.7,30.7c0-6.1-4.9-11-11-11s-11,4.9-11,11s4.9,11,11,11S41.7,36.7,41.7,30.7z"/>
</g>
</svg>
