<?xml version="1.0" encoding="utf-8"?>
<!-- Generator: Adobe Illustrator 22.0.1, SVG Export Plug-In . SVG Version: 6.00 Build 0)  -->
<svg version="1.1" id="Layer_1" xmlns="http://www.w3.org/2000/svg" xmlns:xlink="http://www.w3.org/1999/xlink" x="0px" y="0px"
	 viewBox="0 0 398 398" style="enable-background:new 0 0 398 398;" xml:space="preserve">
<g>
	<ellipse transform="matrix(0.1602 -0.9871 0.9871 0.1602 111.1997 209.6206)" cx="178.8" cy="39.5" rx="39.5" ry="39.5"/>
	<path d="M386.3,280.1c-10-4.6-21.7-0.2-26.4,9.8l-15.5,33.5l-19.4,3.3l-50.8-79c-3.6-5.7-10-9.1-16.8-9.1h-24.1
		c4,7.1,5.9,15.3,5.2,23.5l-1.5,16.2h9.5l35.6,55.5l-71.4,11.9l8-85.4c0.5-5.6-1.4-11.1-5.1-15.3c-3.8-4.1-9.1-6.5-14.7-6.5h-24.6
		c-4.6-21.1-9-63.6,15.2-99.4h108.9c11,0,19.8-8.9,19.8-19.8c0-11-8.9-19.8-19.8-19.8H179.1h-39.8c-4.3,0-107.3,1.1-138.2,93.1
		c-3.5,10.4,2.1,21.6,12.5,25.1c2.1,0.7,4.2,1.1,6.4,1.1c8.3,0,16-5.2,18.9-13.6c11.7-34.9,39-51.2,62.4-59
		c-22,58-1.5,116.2-0.4,119.1c2.9,7.8,10.3,13.2,18.7,13.2h39.4c0.3,0,0.6,0,1,0h17.5l-6.9,74.1l-27.8,4.7l-33.9-17
		c-9.9-4.9-21.7-1-26.7,8.9c-4.9,9.9-1,21.7,8.9,26.7l39.8,19.8c2.8,1.4,5.8,2.1,8.9,2.1c1.1,0,2.2-0.1,3.3-0.3l218.7-36.5
		c6.5-1.1,12.1-5.3,14.9-11.2l19.8-43.1C400.6,296.6,396.2,284.8,386.3,280.1z"/>
</g>
</svg>
