<?xml version="1.0" encoding="utf-8"?>
<!-- Generator: Adobe Illustrator 22.0.1, SVG Export Plug-In . SVG Version: 6.00 Build 0)  -->
<svg version="1.1" id="Layer_1" xmlns="http://www.w3.org/2000/svg" xmlns:xlink="http://www.w3.org/1999/xlink" x="0px" y="0px"
	 viewBox="0 0 100 100" style="enable-background:new 0 0 100 100;" xml:space="preserve">
<style type="text/css">
	.st0{fill:#757575;}
</style>
<title>09</title>
<path class="st0" d="M93.7,45.3h-76l23.6-23.9c1.9-1.8,2-4.9,0.1-6.8c-1.8-1.9-4.9-2-6.8-0.1c-0.1,0.1-0.1,0.1-0.2,0.2l-31.7,32
	c-1.8,1.9-1.8,4.9,0,6.7l31.7,32c1.9,1.8,4.9,1.8,6.8-0.1c1.8-1.8,1.8-4.7,0-6.6L17.8,54.9h76c2.6,0,4.8-2.1,4.8-4.8
	C98.5,47.4,96.4,45.3,93.7,45.3z"/>
</svg>
