<?xml version="1.0" encoding="utf-8"?>
<!-- Generator: Adobe Illustrator 22.0.1, SVG Export Plug-In . SVG Version: 6.00 Build 0)  -->
<svg version="1.1" id="Layer_1" xmlns="http://www.w3.org/2000/svg" xmlns:xlink="http://www.w3.org/1999/xlink" x="0px" y="0px"
	 viewBox="0 0 67.3 67.3" style="enable-background:new 0 0 67.3 67.3;" xml:space="preserve">
<style type="text/css">
	.st0{fill:#757575;}
</style>
<title>64 all</title>
<path class="st0" d="M46.3,4.2L8.4,42.1l0,0c-0.2,0.2-0.3,0.3-0.4,0.5c0,0,0,0.1-0.1,0.2c-0.1,0.1-0.1,0.3-0.2,0.4v0l-7,19.5
	C0.2,64.3,1,66,2.5,66.6c0.7,0.2,1.4,0.2,2,0l19.5-7l0,0c0.1-0.1,0.3-0.1,0.4-0.2l0.1-0.1c0.2-0.1,0.3-0.2,0.5-0.4l0,0l34.6-34.6
	l0,0l3.3-3.3C67.8,16.5,68,9,63.5,4.2S51.4-0.7,46.6,3.9C46.5,4,46.4,4.1,46.3,4.2z M8.5,58.8l3.2-9.1l5.8,5.8L8.5,58.8z M58.9,16.8
	L57.7,18l-8.3-8.3l1.2-1.2c2.2-2.4,6-2.5,8.3-0.3c2.4,2.2,2.5,6,0.3,8.3C59,16.7,58.9,16.7,58.9,16.8z"/>
</svg>
