<?xml version="1.0" encoding="utf-8"?>
<!-- Generator: Adobe Illustrator 22.0.1, SVG Export Plug-In . SVG Version: 6.00 Build 0)  -->
<svg version="1.1"
	 id="Layer_1" xmlns:cc="http://creativecommons.org/ns#" xmlns:dc="http://purl.org/dc/elements/1.1/" xmlns:inkscape="http://www.inkscape.org/namespaces/inkscape" xmlns:rdf="http://www.w3.org/1999/02/22-rdf-syntax-ns#" xmlns:sodipodi="http://sodipodi.sourceforge.net/DTD/sodipodi-0.dtd" xmlns:svg="http://www.w3.org/2000/svg"
	 xmlns="http://www.w3.org/2000/svg" xmlns:xlink="http://www.w3.org/1999/xlink" x="0px" y="0px" viewBox="0 0 94.3 84"
	 style="enable-background:new 0 0 94.3 84;" xml:space="preserve">
<g transform="translate(0,-952.36218)">
	<path d="M24.9,952.3c-6.3,0-12.7,2.5-17.5,7.5c-9.6,10-9.6,26.1,0,36.2l37.6,39.3c1.1,1.2,3.2,1.2,4.3,0
		c12.5-13.1,25.1-26.2,37.6-39.3c9.6-10,9.6-26.1,0-36.2c-9.6-10-25.4-10-35,0l-4.8,5l-4.8-5C37.4,954.5,30.6,952.4,24.9,952.3
		L24.9,952.3z M24.9,958.2c4.7,0,9.5,1.9,13.2,5.8l7,7.3c1.1,1.2,3.2,1.2,4.3,0l6.9-7.3c7.4-7.7,19-7.7,26.3,0
		c7.4,7.7,7.4,20.2,0,27.9c-11.8,12.3-23.6,24.7-35.5,37l-35.5-37c-7.4-7.7-7.4-20.2,0-27.9C15.4,960.1,20.2,958.2,24.9,958.2z"/>
</g>
</svg>
