<?xml version="1.0" encoding="utf-8"?>
<!-- Generator: Adobe Illustrator 22.0.1, SVG Export Plug-In . SVG Version: 6.00 Build 0)  -->
<svg version="1.1" id="Layer_1" xmlns="http://www.w3.org/2000/svg" xmlns:xlink="http://www.w3.org/1999/xlink" x="0px" y="0px"
	 viewBox="0 0 90.5 90.5" style="enable-background:new 0 0 90.5 90.5;" xml:space="preserve">
<style type="text/css">
	.st0{fill:#757575;}
</style>
<g>
	<path class="st0" d="M50.9,3C60.3,3,68,13.7,64.4,24.2c-4.2,12.1-16.5,12.5-16.5,20.9S60.2,53.9,64.4,66
		c3.7,10.5-4.1,21.2-13.5,21.2c-5.5,0-5.7,0-5.7,0s-0.2,0-5.7,0C30.1,87.2,22.4,76.5,26,66c4.2-12.1,16.5-12.5,16.5-20.9
		S30.2,36.3,26,24.2C22.3,13.7,30.1,3,39.5,3c5.5,0,5.7,0,5.7,0S45.4,3,50.9,3 M50.9,0.1h-5.7h-5.7c-5.3,0-10.4,2.8-13.7,7.5
		c-3.6,5.1-4.6,11.6-2.5,17.5c2.4,7,7.2,10.5,11,13.4c3.5,2.6,5.3,4,5.3,6.6s-1.8,4-5.3,6.6c-3.8,2.8-8.6,6.4-11,13.4
		c-2.1,5.9-1.1,12.4,2.5,17.5c3.3,4.7,8.4,7.5,13.7,7.5h5.7h5.7c5.3,0,10.4-2.8,13.7-7.5c3.6-5.1,4.6-11.6,2.5-17.5
		c-2.4-7-7.2-10.5-11-13.4c-3.5-2.6-5.3-4-5.3-6.6s1.8-4,5.3-6.6c3.8-2.8,8.6-6.4,11-13.4c2.1-5.9,1.1-12.5-2.5-17.6
		C61.3,2.9,56.2,0.1,50.9,0.1L50.9,0.1z"/>
	<path class="st0" d="M63.8,69.1c-2.9,0.6-4.8,0.8-6.5,0.8h-0.1c-0.1,0-0.2,0-0.3,0c-4.9-0.2-10.4-5.3-10.4-10.1v-5v-9.7
		c0-4.8,3.4-7.3,7-10c1.7-1.3,3.6-2.7,5.3-4.4c-7-1.3-11.4-3.9-16.3-4.8c-4.7-0.9-9.7,0.6-13.2,2.1c2.1,3.2,4.9,5.3,7.5,7.2
		c3.6,2.7,7,5.2,7,10v9.7v5c0,4.4-2.5,6.3-5.7,6.6c-0.3,0-0.5,0-0.8,0.1h-0.1c-0.2,0-0.4,0-0.6,0.1c-3.7,0.4-7.1,1.7-10.1,3
		c-0.5,3.8,0.4,7.5,2.7,10.7c2.5,3.6,6.4,5.7,10.2,5.7h11.4c3.9,0,7.7-2.1,10.2-5.7C63.5,76.9,64.4,73,63.8,69.1z"/>
</g>
</svg>
