<?xml version="1.0" encoding="utf-8"?>
<!-- Generator: Adobe Illustrator 22.0.1, SVG Export Plug-In . SVG Version: 6.00 Build 0)  -->
<svg version="1.1" id="Layer_1" xmlns="http://www.w3.org/2000/svg" xmlns:xlink="http://www.w3.org/1999/xlink" x="0px" y="0px"
	 viewBox="0 0 100 100" style="enable-background:new 0 0 100 100;" xml:space="preserve">
<style type="text/css">
	.st0{fill:#757575;}
</style>
<g>
	<g>
		<circle class="st0" cx="49.9" cy="47.6" r="11"/>
		<path class="st0" d="M86,59.9l-0.4-0.2c-2.1-1-4.6-0.1-5.6,2L73.8,75l-7.3-12.8c-1.2-2-3.7-2.7-5.8-1.6l-0.4,0.2
			c-0.1,0.1-0.2,0.1-0.3,0.2c-0.1,0-0.2,0-0.3,0H39.9c-1.8,0-3.3,1.1-3.9,2.7c-1.1,0.2-2.2,0.9-2.8,2l-7.3,12.8l-6.2-13.3
			c-1-2.1-3.5-3-5.6-2l-0.4,0.2c-2.1,1-3,3.5-2,5.6l9.9,21.2c0.9,1.9,3.1,2.9,5.1,2.3c1.1-0.2,2.2-0.9,2.8-2l6.3-11.1v14.2
			c0,2.3,1.9,4.2,4.2,4.2h19.8c2.3,0,4.2-1.9,4.2-4.2V75.8l6.3,11.1c0.6,1.1,1.7,1.8,2.8,2c2,0.6,4.2-0.3,5.1-2.3L88,65.5
			C89,63.3,88.1,60.8,86,59.9z"/>
	</g>
	<g>
		<path class="st0" d="M57.2,14.2c-0.1,1.6-0.9,3.1-2.3,2.5c-0.2-0.7,0-1.4,0-2c-0.4-3.4-5.6-4-6.1,0.4c-4.2-1.4-8.5-2.8-12.7-4.2
			c1.7-4.9-5.1-7.2-6-2c-1.6-0.5-2.4-1.4-1.6-3.3c1.5-1.3,2.9-2.2,5.1-2.1c0.7,0,1.5,0.4,2.3,0.3c0.7,0,1.3-0.6,2-0.8
			c1.9-0.7,4.3-1.1,6.9-0.5C51.6,4.1,54.3,9.4,57.2,14.2z M39.2,3.8c-0.1,0.5-0.2,0.9-0.4,1.4c2.5,0.9,4.8,1.4,7.3,2.3
			c0.3-1.1,0.6-2.1,0.9-3.2C44,2.8,41.1,2.8,39.2,3.8z M47.2,7.9c1.5,0.5,3.1,1,4.6,1.5c-0.4-2-2-3.4-3.9-4.6
			C47.6,5.9,47.5,6.8,47.2,7.9z"/>
		<path class="st0" d="M33.4,6.5c1.8,0.2,2.8,1.6,2.4,3.3c-0.9,3.4-5.7,1.7-4.9-1.5C31.2,7.2,32.1,6.4,33.4,6.5z"/>
		<path class="st0" d="M52,12.6c1.9,0.1,3,1.8,2.3,3.7c-1.3,3.3-6.4,0.6-4.4-2.7C50.2,13.1,50.9,12.5,52,12.6z"/>
	</g>
	<g>
		<path class="st0" d="M86.7,40c0,0,0.1,0.5,0.5,1.6c1-0.9,2.2-1.7,3.6-2.2c0,0,0.1,0,0.1,0c0-4-1.4-8.6-1.1-9.9c0,0-1,1.3-4.5,5.8
			c-2.2,2.8-2.1,7.3-0.7,9.5c0.5-0.8,1.1-1.6,1.8-2.4C86.4,40.5,86.7,40,86.7,40z"/>
		<path class="st0" d="M99.7,36.7c0,0-2,0.7-8.7,3.2c-5.8,2.1-9.3,10.3-5.7,12.5c2.4-5.7,6.5-9.1,6.5-9.1s-3.5,4.7-3.7,9.7
			C94.7,52.3,97.7,38.7,99.7,36.7z"/>
	</g>
	<g>
		<path class="st0" d="M77.1,6.3c2.8,0.1,5.5,0.5,8.3,0.7c0,1.6-0.1,3.1-0.1,4.6c-1.3,0-2.5-0.2-3.8-0.3c0.8,4.2,1.6,8.3,2.4,12.4
			c-3.8,0.7-7.7,1.5-11.5,2.2c-0.9-4-1.6-8.3-2.4-12.4c-1.1,0.4-2.2,1.2-3.4,1.8c-0.6-1.5-1.3-2.9-1.9-4.4c2.5-1.2,5-2.5,7.4-3.6
			c0.8,0.5,1.4,1.4,2.5,1.3C76.1,8.5,76.6,7.1,77.1,6.3z"/>
	</g>
	<path class="st0" d="M7.5,43.2c0,0-8.8,0.1-6.9,6.6l2.9,10.1L23,53l-2.6-8.8L7.5,43.2z M1.4,47.2c0.3,0.3,0.9,0.5,1.4,0.3
		c0.8-0.2,1.2-0.9,1-1.6c-0.1-0.4-0.5-0.7-0.9-0.8c0.7-0.4,1.7-0.8,3-1.1c0.3-0.1,1.2,0,2.2,0.1c-0.7,0.3-1.1,0.6-1,0.9
		C7.2,45.3,8,45.3,9,45.1c0.6-0.2,1.1-0.5,1.4-0.7c0.1,0,0.1,0,0.1,0l3.7,0.5l-1,0.4l-3.5,1.2l-8.1,2.4C1.6,48.8,1.2,48.1,1.4,47.2z
		 M6.6,56.3c-0.6,0.2-1.3-0.1-1.4-0.7C5,55,5.4,54.3,6,54.2c0.6-0.2,1.3,0.1,1.4,0.7C7.6,55.5,7.2,56.1,6.6,56.3z M7.1,52
		C6,52.3,5,51.8,4.7,50.9c-0.3-0.9,0.4-1.9,1.4-2.2c1.1-0.3,2.1,0.2,2.4,1.1C8.8,50.7,8.2,51.7,7.1,52z M9.4,50.9
		c-0.2-0.6,0.3-1.3,1-1.5c0.7-0.2,1.4,0.1,1.6,0.7c0.2,0.6-0.3,1.3-1,1.5C10.3,51.8,9.6,51.5,9.4,50.9z M14.7,54.9
		c-1.1,0.3-2.2-0.2-2.5-1.1c-0.3-0.9,0.4-2,1.5-2.3c1.1-0.3,2.2,0.2,2.5,1.1C16.4,53.6,15.8,54.6,14.7,54.9z M13.5,47.5
		c-0.8,0.2-1.6,0.2-2.1-0.1l3.8-1C14.8,46.8,14.2,47.2,13.5,47.5z M18.3,51.4c-0.7,0.2-1.4-0.1-1.6-0.8c-0.2-0.6,0.2-1.3,0.9-1.5
		c0.7-0.2,1.4,0.1,1.6,0.8C19.4,50.5,19,51.2,18.3,51.4z"/>
	<g>
		<path class="st0" d="M12.9,23.8c0.7-2.3,0.4-4.7-0.7-6.7c-2,1-3.6,2.8-4.4,5.1L12.9,23.8z"/>
		<path class="st0" d="M16.7,25.1l2.8,0.9c0.9-2.4,2.6-4.3,4.8-5.3c-1.1-1.8-2.7-3.3-4.9-4.1L16.7,25.1z"/>
		<path class="st0" d="M16.2,24.9l2.7-8.5c-2.2-0.6-4.4-0.4-6.3,0.4c1.1,2.1,1.5,4.6,0.7,7.1L16.2,24.9z"/>
		<path class="st0" d="M20,26.1l5.2,1.7c0.7-2.3,0.4-4.7-0.6-6.7C22.5,22.1,20.8,23.8,20,26.1z"/>
		<path class="st0" d="M19.8,26.6c-0.7,2.3-0.4,4.7,0.7,6.7c2-1,3.6-2.8,4.4-5.1L19.8,26.6z"/>
		<path class="st0" d="M19.4,26.4l-2.8-0.9L13.8,34c2.2,0.6,4.4,0.4,6.3-0.4C19,31.4,18.6,28.9,19.4,26.4z"/>
		<path class="st0" d="M7.6,22.6c-0.7,2.3-0.4,4.7,0.6,6.7c2-1,3.7-2.7,4.5-5L7.6,22.6z"/>
		<path class="st0" d="M16.1,25.4l-2.8-0.9c-0.9,2.4-2.6,4.3-4.8,5.3c1.1,1.8,2.7,3.3,4.9,4.1L16.1,25.4z"/>
	</g>
</g>
</svg>
