<?xml version="1.0" encoding="utf-8"?>
<!-- Generator: Adobe Illustrator 22.0.1, SVG Export Plug-In . SVG Version: 6.00 Build 0)  -->
<svg version="1.1" id="Layer_1" xmlns="http://www.w3.org/2000/svg" xmlns:xlink="http://www.w3.org/1999/xlink" x="0px" y="0px"
	 viewBox="0 0 82.1 72.4" style="enable-background:new 0 0 82.1 72.4;" xml:space="preserve">
<style type="text/css">
	.st0{fill:#D3D3D3;}
</style>
<path class="st0" d="M71,0H11C4.9,0,0,4.9,0,11l0,0v39c0,6.1,4.9,11,11,11h33.8l12,10.2c0.9,0.8,2.1,1.2,3.3,1.2
	c0.7,0,1.4-0.2,2.1-0.5c1.8-0.8,2.9-2.6,2.9-4.5V61h6c6.1,0,11-4.9,11-11V11C82,4.9,77.1,0,71,0L71,0z M23,37.3
	c-3.6,0-6.5-2.9-6.5-6.5s2.9-6.5,6.5-6.5s6.5,2.9,6.5,6.5S26.6,37.3,23,37.3L23,37.3L23,37.3z M41.1,37.3c-3.6,0-6.5-2.9-6.5-6.5
	s2.9-6.5,6.5-6.5s6.5,2.9,6.5,6.5S44.6,37.3,41.1,37.3C41,37.3,41,37.3,41.1,37.3L41.1,37.3z M59.1,37.3c-3.6,0-6.5-2.9-6.5-6.5
	s2.9-6.5,6.5-6.5s6.5,2.9,6.5,6.5S62.7,37.3,59.1,37.3L59.1,37.3L59.1,37.3z"/>
</svg>
