<?xml version="1.0" encoding="utf-8"?>
<!-- Generator: Adobe Illustrator 22.0.1, SVG Export Plug-In . SVG Version: 6.00 Build 0)  -->
<svg version="1.1"
	 id="Layer_1" xmlns:cc="http://creativecommons.org/ns#" xmlns:dc="http://purl.org/dc/elements/1.1/" xmlns:inkscape="http://www.inkscape.org/namespaces/inkscape" xmlns:rdf="http://www.w3.org/1999/02/22-rdf-syntax-ns#" xmlns:sodipodi="http://sodipodi.sourceforge.net/DTD/sodipodi-0.dtd" xmlns:svg="http://www.w3.org/2000/svg"
	 xmlns="http://www.w3.org/2000/svg" xmlns:xlink="http://www.w3.org/1999/xlink" x="0px" y="0px" viewBox="0 0 100 100"
	 style="enable-background:new 0 0 100 100;" xml:space="preserve">
<style type="text/css">
	.st0{fill:#757575;}
</style>
<g transform="translate(0,-952.36218)">
	<path class="st0" d="M50,952.4c-11.4,0-20.5,9.1-20.5,20.5v30.8c0,11.4,9.1,20.5,20.5,20.5s20.5-9.1,20.5-20.5v-30.8
		C70.5,961.5,61.4,952.4,50,952.4z M17.7,986.9c-1.3,0.1-2.3,1.3-2.3,2.6v14.1c0,18.1,14.1,33.2,32.1,34.5v9.1H32.1
		c-1.4,0-2.6,1.1-2.6,2.6s1.1,2.6,2.6,2.6h35.9c1.4,0,2.6-1.1,2.6-2.6s-1.1-2.6-2.6-2.6H52.6v-9.1c18-1.3,32.1-16.4,32.1-34.5v-14.1
		c0-1.4-1.2-2.6-2.6-2.6c-1.4,0-2.6,1.2-2.6,2.6v14.1c0,16.1-13.1,29.5-29.5,29.5c-16.4,0-29.5-13.4-29.5-29.5v-14.1
		C20.5,988.1,19.1,986.8,17.7,986.9L17.7,986.9z"/>
</g>
</svg>
