<?xml version="1.0" encoding="utf-8"?>
<!-- Generator: Adobe Illustrator 22.0.1, SVG Export Plug-In . SVG Version: 6.00 Build 0)  -->
<svg version="1.1" id="Layer_1" xmlns="http://www.w3.org/2000/svg" xmlns:xlink="http://www.w3.org/1999/xlink" x="0px" y="0px"
	 viewBox="0 0 100 100" style="enable-background:new 0 0 100 100;" xml:space="preserve">
<style type="text/css">
	.st0{fill:#757575;}
</style>
<g>
	<path class="st0" d="M100,82.2V17.8c0-1.3-1.1-2.4-2.4-2.4H2.4c-1.3,0-2.4,1.1-2.4,2.4v64.4c0,1.3,1.1,2.4,2.4,2.4h95.3
		C98.9,84.6,100,83.5,100,82.2z M95.3,79.8H4.7V20.2h90.5C95.3,20.2,95.3,79.8,95.3,79.8z"/>
	<path class="st0" d="M27.8,45.3c5.7,0,10.4-4.6,10.4-10.4s-4.6-10.4-10.4-10.4s-10.4,4.6-10.4,10.4S22.1,45.3,27.8,45.3z
		 M27.8,29.4c3.1,0,5.7,2.5,5.7,5.7s-2.5,5.7-5.7,5.7s-5.7-2.5-5.7-5.7S24.7,29.4,27.8,29.4z"/>
	<path class="st0" d="M16,75.2h23.6c1.3,0,2.4-1.1,2.4-2.4v-14c0-5.2-4.3-9.5-9.5-9.5H23c-5.2,0-9.5,4.3-9.5,9.5v14.1
		C13.6,74.2,14.7,75.2,16,75.2z M18.3,58.8c0-2.6,2.1-4.7,4.7-4.7h9.5c2.6,0,4.7,2.1,4.7,4.7v11.7H18.3V58.8z"/>
	<path class="st0" d="M58.2,33.7h28.6c1.3,0,2.4-1.1,2.4-2.4c0-1.3-1.1-2.4-2.4-2.4H58.2c-1.3,0-2.4,1.1-2.4,2.4
		C55.8,32.7,56.9,33.7,58.2,33.7z"/>
	<path class="st0" d="M58.2,46.2h28.6c1.3,0,2.4-1.1,2.4-2.4c0-1.3-1.1-2.4-2.4-2.4H58.2c-1.3,0-2.4,1.1-2.4,2.4
		C55.8,45.1,56.9,46.2,58.2,46.2z"/>
	<path class="st0" d="M58.2,58.6h28.6c1.3,0,2.4-1.1,2.4-2.4c0-1.3-1.1-2.4-2.4-2.4H58.2c-1.3,0-2.4,1.1-2.4,2.4
		S56.9,58.6,58.2,58.6z"/>
	<path class="st0" d="M58.2,71h28.6c1.3,0,2.4-1.1,2.4-2.4s-1.1-2.4-2.4-2.4H58.2c-1.3,0-2.4,1.1-2.4,2.4S56.9,71,58.2,71z"/>
</g>
</svg>
