<?xml version="1.0" encoding="utf-8"?>
<!-- Generator: Adobe Illustrator 22.0.1, SVG Export Plug-In . SVG Version: 6.00 Build 0)  -->
<svg version="1.1" id="Layer_1" xmlns="http://www.w3.org/2000/svg" xmlns:xlink="http://www.w3.org/1999/xlink" x="0px" y="0px"
	 viewBox="0 0 30 30" style="enable-background:new 0 0 30 30;" xml:space="preserve">
<style type="text/css">
	.st0{fill:#757575;}
</style>
<g>
	<g>
		<g>
			<path class="st0" d="M28.2,18.2l0.9-0.9c0.5-0.5,0.5-1.3,0-1.8l-0.9-0.9c-0.5-0.5-1.3-0.5-1.8,0l-0.9,0.9L28.2,18.2z"/>
		</g>
		<g>
			<polygon class="st0" points="24.5,16.3 14.6,26.3 14.6,29.1 17.3,29.1 27.3,19.1 			"/>
		</g>
	</g>
	<g>
		<g>
			<g>
				<path class="st0" d="M8.8,7.3c1,0,1.9,0.9,1.9,1.9c0,0.9-0.8,1.9-1.9,1.9c-1,0-1.9-0.9-1.9-1.9S7.8,7.3,8.8,7.3 M8.8,6
					C7,6,5.6,7.4,5.6,9.2s1.4,3.2,3.2,3.2S12,10.9,12,9.2C12,7.4,10.6,6,8.8,6L8.8,6z"/>
			</g>
		</g>
	</g>
	<g>
		<path class="st0" d="M12,25.4H2.3c-1,0-1.8-0.8-1.8-1.8V2.7c0-0.9,0.9-1.8,1.8-1.8h20.8c0.9,0,1.8,0.9,1.8,1.8v7.2
			c0,0.8-0.5,1.3-1.3,1.3s-1.3-0.5-1.3-1.3V3.4H3.1v19.4h9c0.8,0,1.3,0.5,1.3,1.3S12.8,25.4,12,25.4z"/>
	</g>
	<g>
		<path class="st0" d="M7.4,20.8c-0.1,0-0.4,0-0.5-0.1c-0.3-0.3-0.3-0.6,0-0.9l5.1-5.3c0.1-0.1,0.3-0.1,0.5-0.1l0,0
			c0.1,0,0.4,0.1,0.5,0.1l2.8,2.8c0.3,0.3,0.3,0.6,0,0.9c-0.3,0.3-0.6,0.3-0.9,0l-2.4-2.4l-4.6,4.8C7.8,20.8,7.6,20.8,7.4,20.8z"/>
	</g>
	<g>
		<path class="st0" d="M14.2,17.2c-0.1,0-0.4,0-0.5-0.1c-0.3-0.3-0.3-0.6,0-0.9l3.5-3.5c0.3-0.3,0.6-0.3,0.9,0l2.6,2.6
			c0.3,0.3,0.3,0.6,0,0.9s-0.6,0.3-0.9,0l-2.1-2.1l-3.1,2.8C14.6,17.1,14.4,17.2,14.2,17.2z"/>
	</g>
</g>
</svg>
