<?xml version="1.0" encoding="utf-8"?>
<!-- Generator: Adobe Illustrator 22.0.1, SVG Export Plug-In . SVG Version: 6.00 Build 0)  -->
<svg version="1.1"
	 id="Layer_1" xmlns:cc="http://creativecommons.org/ns#" xmlns:dc="http://purl.org/dc/elements/1.1/" xmlns:inkscape="http://www.inkscape.org/namespaces/inkscape" xmlns:rdf="http://www.w3.org/1999/02/22-rdf-syntax-ns#" xmlns:sodipodi="http://sodipodi.sourceforge.net/DTD/sodipodi-0.dtd" xmlns:svg="http://www.w3.org/2000/svg"
	 xmlns="http://www.w3.org/2000/svg" xmlns:xlink="http://www.w3.org/1999/xlink" x="0px" y="0px" viewBox="0 0 86.4 86.1"
	 style="enable-background:new 0 0 86.4 86.1;" xml:space="preserve">
<style type="text/css">
	.st0{fill:#D3D3D3;}
</style>
<g transform="translate(0,-952.36218)">
	<path class="st0" d="M34.3,952.4c-18.7,0-34,15.3-34,34s15.3,34,34,34c7.2,0,13.9-2.3,19.4-6.1l22.3,22.4c2.3,2.3,6.2,2.3,8.5,0
		s2.3-6.2,0-8.5L62,1005.9c3.9-5.5,6.1-12.2,6.1-19.4C68.3,967.7,53,952.4,34.3,952.4z M34.3,964.4c12.2,0,22,9.8,22,22
		s-9.8,22-22,22s-22-9.8-22-22C12.3,974.1,22,964.4,34.3,964.4z"/>
</g>
</svg>
