<?xml version="1.0" encoding="utf-8"?>
<!-- Generator: Adobe Illustrator 22.0.1, SVG Export Plug-In . SVG Version: 6.00 Build 0)  -->
<svg version="1.1"
	 id="Layer_1" xmlns:cc="http://creativecommons.org/ns#" xmlns:dc="http://purl.org/dc/elements/1.1/" xmlns:inkscape="http://www.inkscape.org/namespaces/inkscape" xmlns:rdf="http://www.w3.org/1999/02/22-rdf-syntax-ns#" xmlns:sodipodi="http://sodipodi.sourceforge.net/DTD/sodipodi-0.dtd" xmlns:svg="http://www.w3.org/2000/svg"
	 xmlns="http://www.w3.org/2000/svg" xmlns:xlink="http://www.w3.org/1999/xlink" x="0px" y="0px" viewBox="0 0 95 95.4"
	 style="enable-background:new 0 0 95 95.4;" xml:space="preserve">
<style type="text/css">
	.st0{fill:#757575;}
</style>
<g transform="translate(0,-952.36218)">
	<path class="st0" d="M47.5,959.5c-22.1,0-40,17.9-40,40s17.9,40,40,40s40-17.9,40-40S69.6,959.5,47.5,959.5z M47.5,968.5
		c1.1,0,2,0.9,2,2v27.8l22.4,12.9c1,0.6,1.3,1.8,0.8,2.7s-1.8,1.3-2.8,0.7c-7.8-4.5-15.6-9-23.4-13.5c-0.6-0.3-1-1-1-1.7v-29
		C45.5,969.4,46.4,968.5,47.5,968.5L47.5,968.5z"/>
</g>
</svg>
