<?xml version="1.0" encoding="utf-8"?>
<!-- Generator: Adobe Illustrator 22.0.1, SVG Export Plug-In . SVG Version: 6.00 Build 0)  -->
<svg version="1.1" id="Layer_1" xmlns="http://www.w3.org/2000/svg" xmlns:xlink="http://www.w3.org/1999/xlink" x="0px" y="0px"
	 viewBox="0 0 100 125" style="enable-background:new 0 0 100 125;" xml:space="preserve">
<g>
	<path d="M51.9,55l5.6-13.9c4,3.6,9.4,5.4,14.8,4.9c5.8-0.7,11.6,1.6,15.4,6l6.6-16.7c-3.8-4.5-9.6-6.7-15.4-6
		c-5.4,0.5-10.7-1.3-14.8-4.9c0.2-0.5,0-1.1-0.6-1.3c-0.5-0.2-1.1,0-1.3,0.6L50.8,52.2L51.9,55z"/>
</g>
<g>
	<path d="M48.6,57.6l-7.5,18.7c-0.2,0.5,0,1.1,0.6,1.3c0.5,0.2,1.1-0.1,1.3-0.6l6.6-16.7L48.6,57.6z"/>
</g>
<g>
	<path d="M36.5,24.4c-0.2-0.5,0-1.1,0.6-1.3c0.5-0.2,1.1,0,1.3,0.6l21,52.7c0.2,0.5-0.1,1.1-0.6,1.3c-0.5,0.2-1.1-0.1-1.3-0.6
		l-14.4-36c-4,3.6-9.4,5.4-14.8,4.9c-5.8-0.7-11.6,1.6-15.4,6L6.3,35.3c3.8-4.5,9.6-6.7,15.4-6C27.1,29.8,32.4,28,36.5,24.4z"/>
</g>
</svg>
