<?xml version="1.0" encoding="utf-8"?>
<!-- Generator: Adobe Illustrator 22.0.1, SVG Export Plug-In . SVG Version: 6.00 Build 0)  -->
<svg version="1.1" id="Layer_1" xmlns="http://www.w3.org/2000/svg" xmlns:xlink="http://www.w3.org/1999/xlink" x="0px" y="0px"
	 viewBox="0 0 100 125" style="enable-background:new 0 0 100 125;" xml:space="preserve">
<g>
	<path d="M49.4,52l-10,25c-0.2,0.5-0.8,0.8-1.3,0.6c-0.5-0.2-0.8-0.8-0.6-1.3l10.8-27L49.4,52z"/>
</g>
<g>
	<path d="M50.4,43.8l8.1-20.2c0.2-0.5,0.8-0.8,1.3-0.6c0.5,0.2,0.8,0.8,0.6,1.3l-8.9,22.2L50.4,43.8z"/>
</g>
<g>
	<path d="M61.2,25.1l-6.6,16.7c3.9,3.2,9,4.7,14,4.2c5.8-0.7,11.6,1.6,15.4,6l6.6-16.7c-3.8-4.5-9.6-6.7-15.4-6
		C70.1,29.8,65.1,28.2,61.2,25.1z"/>
</g>
<g>
	<path d="M62.3,76.3l-21-52.7c-0.2-0.5-0.8-0.8-1.3-0.6c-0.5,0.2-0.8,0.8-0.6,1.3l21,52.7c0.2,0.5,0.8,0.8,1.3,0.6
		C62.3,77.4,62.5,76.8,62.3,76.3z"/>
</g>
<g>
	<path d="M38.6,25.1l6.6,16.7c-3.9,3.2-9,4.7-14,4.2c-5.8-0.7-11.6,1.6-15.4,6L9.2,35.3c3.8-4.5,9.6-6.7,15.4-6
		C29.7,29.8,34.7,28.2,38.6,25.1z"/>
</g>
</svg>
