<?xml version="1.0" encoding="utf-8"?>
<!-- Generator: Adobe Illustrator 22.0.1, SVG Export Plug-In . SVG Version: 6.00 Build 0)  -->
<svg version="1.1" id="Layer_1" xmlns="http://www.w3.org/2000/svg" xmlns:xlink="http://www.w3.org/1999/xlink" x="0px" y="0px"
	 viewBox="0 0 81.6 55" style="enable-background:new 0 0 81.6 55;" xml:space="preserve">
<style type="text/css">
	.st0{fill:#757575;}
</style>
<g>
	<path class="st0" d="M40.2,28.6l-10,25c-0.2,0.5-0.8,0.8-1.3,0.6c-0.5-0.2-0.8-0.8-0.6-1.3l10.8-27L40.2,28.6z"/>
</g>
<g>
	<path class="st0" d="M41.2,20.4l8.1-20.2c0.2-0.5,0.8-0.8,1.3-0.6c0.5,0.2,0.8,0.8,0.6,1.3l-8.9,22.2L41.2,20.4z"/>
</g>
<g>
	<path class="st0" d="M52,1.7l-6.6,16.7c3.9,3.2,9,4.7,14,4.2c5.8-0.7,11.6,1.6,15.4,6l6.6-16.7c-3.8-4.5-9.6-6.7-15.4-6
		C60.9,6.4,55.9,4.8,52,1.7z"/>
</g>
<g>
	<path class="st0" d="M53.1,52.9l-21-52.7c-0.2-0.5-0.8-0.8-1.3-0.6c-0.5,0.2-0.8,0.8-0.6,1.3l21,52.7c0.2,0.5,0.8,0.8,1.3,0.6
		C53.1,54,53.3,53.4,53.1,52.9z"/>
</g>
<g>
	<path class="st0" d="M29.4,1.7L36,18.4c-3.9,3.2-9,4.7-14,4.2c-5.8-0.7-11.6,1.6-15.4,6L0,11.9c3.8-4.5,9.6-6.7,15.4-6
		C20.5,6.4,25.5,4.8,29.4,1.7z"/>
</g>
</svg>
