<?xml version="1.0" encoding="utf-8"?>
<!-- Generator: Adobe Illustrator 22.0.1, SVG Export Plug-In . SVG Version: 6.00 Build 0)  -->
<svg version="1.1" id="Layer_1" xmlns="http://www.w3.org/2000/svg" xmlns:xlink="http://www.w3.org/1999/xlink" x="0px" y="0px"
	 viewBox="0 0 81.6 81.6" style="enable-background:new 0 0 81.6 81.6;" xml:space="preserve">
<style type="text/css">
	.st0{fill:#757575;}
</style>
<g>
	<path class="st0" d="M40.4,41.5L26.8,75.4c-0.3,0.7-1.1,1.1-1.8,0.8c-0.7-0.3-1.1-1.1-0.8-1.8l14.6-36.6L40.4,41.5z"/>
</g>
<g>
	<path class="st0" d="M41.7,31.4L52.7,4c0.3-0.7,1.1-1.1,1.8-0.8s1.1,1.1,0.8,1.8L43.2,35.1L41.7,31.4z"/>
</g>
<g>
	<path class="st0" d="M52,6l-6.6,16.7c3.9,3.2,9,4.7,14,4.2c5.8-0.7,11.6,1.6,15.4,6l6.6-16.7c-3.8-4.5-9.6-6.7-15.4-6
		C60.9,10.7,55.9,9.1,52,6z"/>
</g>
<g>
	<path class="st0" d="M58.2,75.4L29.7,4c-0.3-0.7-1.1-1.1-1.8-0.8c-0.7,0.3-1.1,1.1-0.8,1.8l28.5,71.4c0.3,0.7,1.1,1.1,1.8,0.8
		C58.2,76.9,58.4,76.1,58.2,75.4z"/>
</g>
<g>
	<path class="st0" d="M30.4,6L37,22.7c-3.9,3.2-9,4.7-14,4.2c-5.8-0.7-11.6,1.6-15.4,6L1,16.2c3.8-4.5,9.6-6.7,15.4-6
		C21.5,10.7,26.5,9.1,30.4,6z"/>
</g>
</svg>
