<?xml version="1.0" encoding="utf-8"?>
<!-- Generator: Adobe Illustrator 22.0.1, SVG Export Plug-In . SVG Version: 6.00 Build 0)  -->
<svg version="1.1" id="Layer_1" xmlns="http://www.w3.org/2000/svg" xmlns:xlink="http://www.w3.org/1999/xlink" x="0px" y="0px"
	 viewBox="0 0 100 100" style="enable-background:new 0 0 100 100;" xml:space="preserve">
<style type="text/css">
	.st0{fill:#757575;}
</style>
<path class="st0" d="M42.4,17c0-7.7,7.7-17,7.7-17s7.7,9.3,7.7,17c0,4.3-3.5,7.7-7.7,7.7S42.4,21.4,42.4,17z M83.6,89.6H16.5
	c-1,0-1.8,0.8-1.8,1.8v6.7c0,1,0.8,1.8,1.8,1.8h66.9c1,0,1.8-0.8,1.8-1.8v-6.7C85.5,90.5,84.6,89.6,83.6,89.6z M24.7,72.1
	c1.8,2.7,3,4.3,5.3,4.3s3.5-1.7,5.3-4.3c1.7-2.7,3.8-5.8,8-5.8s6.3,3.3,8,5.8c1.8,2.7,3,4.3,5.3,4.3s3.5-1.7,5.3-4.3
	c1.7-2.7,3.8-5.8,8-5.8s6.3,3.3,8,5.8c1.2,1.8,2.2,3.3,3.5,4V60.6c0-1.7-1.3-3.2-3.2-3.2h-23v-26c0-1.2-1-2.2-2.2-2.2h-6.3
	c-1.2,0-2.2,1-2.2,2.2v26.2h-23c-1.7,0-3.2,1.3-3.2,3.2v5.8C21.5,67.3,23.4,69.9,24.7,72.1z M81.6,79.6c-3-0.8-4.8-3.5-6.2-5.7
	c-1.8-2.7-3-4.3-5.3-4.3c-2.3,0-3.5,1.7-5.3,4.3c-1.7,2.7-3.8,5.8-8,5.8s-6.3-3.3-8-5.8c-1.8-2.7-3-4.3-5.3-4.3
	c-2.3,0-3.5,1.7-5.3,4.3c-1.7,2.7-3.8,5.8-8,5.8s-6.3-3.3-8-5.8c-1.2-1.8-2.2-3.3-3.5-4v16.2h63.1V79.6z"/>
</svg>
