<?xml version="1.0" encoding="utf-8"?>
<!-- Generator: Adobe Illustrator 21.1.0, SVG Export Plug-In . SVG Version: 6.00 Build 0)  -->
<svg version="1.1" id="Layer_1" xmlns="http://www.w3.org/2000/svg" xmlns:xlink="http://www.w3.org/1999/xlink" x="0px" y="0px"
	 viewBox="0 0 333 416.3" style="enable-background:new 0 0 333 416.3;" xml:space="preserve">
<g>
	<path d="M52,51h15c0-11-2-22,5-29c10-11,28-3,28,12v17h48c0-11-1-22,5-29c11-11,29-3,29,12v17h48c0-11-2-22,5-29c11-11,29-3,29,12
		v17h17c21,0,38,17,38,38v26H15V89C15,68,32,51,52,51z M170,68V34c0-7-10-7-10,0v34C160,75,170,75,170,68z M252,68V34c0-7-10-7-10,0
		v34C242,75,252,75,252,68z M88,68V34c0-7-10-7-10,0v34C78,75,88,75,88,68z M319,143v135c0,21-17,38-38,38H52c-20,0-37-17-37-38V143
		H319z"/>
</g>
</svg>
