<?xml version="1.0" encoding="utf-8"?>
<!-- Generator: Adobe Illustrator 22.0.1, SVG Export Plug-In . SVG Version: 6.00 Build 0)  -->
<svg version="1.1" id="Layer_1" xmlns="http://www.w3.org/2000/svg" xmlns:xlink="http://www.w3.org/1999/xlink" x="0px" y="0px"
	 viewBox="0 0 307 302.7" style="enable-background:new 0 0 307 302.7;" xml:space="preserve">
<style type="text/css">
	.st0{fill:#757575;}
</style>
<g>
	<path class="st0" d="M39,36.1h15c0-11-2-22,5-29c10-11,28-3,28,12v17h48c0-11-1-22,5-29c11-11,29-3,29,12v17h48c0-11-2-22,5-29
		c11-11,29-3,29,12v17h17c21,0,38,17,38,38v26H2v-26C2,53.1,19,36.1,39,36.1z M157,53.1v-34c0-7-10-7-10,0v34
		C147,60.1,157,60.1,157,53.1z M239,53.1v-34c0-7-10-7-10,0v34C229,60.1,239,60.1,239,53.1z M75,53.1v-34c0-7-10-7-10,0v34
		C65,60.1,75,60.1,75,53.1z M306,128.1v135c0,21-17,38-38,38H39c-20,0-37-17-37-38v-135H306z"/>
</g>
</svg>
