<?xml version="1.0" encoding="utf-8"?>
<!-- Generator: Adobe Illustrator 22.0.1, SVG Export Plug-In . SVG Version: 6.00 Build 0)  -->
<svg version="1.1" id="Layer_1" xmlns="http://www.w3.org/2000/svg" xmlns:xlink="http://www.w3.org/1999/xlink" x="0px" y="0px"
	 viewBox="0 0 512 511" style="enable-background:new 0 0 512 511;" xml:space="preserve">
<g>
	<path d="M0,369.2c0,42.8,7.3,83.9,20.7,122.1C58.9,504.7,100,512,142.8,512c12.1,0,24.2-0.6,36-1.7L1.7,333.6
		C0.6,345.3,0,357.2,0,369.2z"/>
	<path d="M491.3,20.7C453.1,7.3,412,0,369.2,0c-12.2,0-24.2,0.6-36,1.8l177.1,176.6c1.1-11.7,1.7-23.6,1.7-35.6
		C512,100,504.7,58.9,491.3,20.7z"/>
	<path d="M9.5,285.9l217.1,216.6C363.3,470.7,471,363,502.5,226.2L285.4,9.6C148.7,41.3,41.1,149,9.5,285.9z M310.6,185.8l35.1-35
		l15.7,15.7l-35.1,35l20,19.9l-15.7,15.7l-19.9-19.9L272,255.8l20.2,20.2l-15.7,15.7l-20.2-20.2l-41.2,41l20,19.9l-15.7,15.7
		l-20-19.9l-32.6,32.6L151,345.1l32.6-32.5l-20-19.9l15.7-15.7l20,19.9l41.1-41l-19.6-19.6l15.7-15.7l19.7,19.6l38.7-38.6l-20-19.9
		l15.7-15.7L310.6,185.8z"/>
</g>
</svg>
