<?xml version="1.0" encoding="utf-8"?>
<!-- Generator: Adobe Illustrator 21.1.0, SVG Export Plug-In . SVG Version: 6.00 Build 0)  -->
<svg version="1.1" id="Layer_1" xmlns="http://www.w3.org/2000/svg" xmlns:xlink="http://www.w3.org/1999/xlink" x="0px" y="0px"
	 viewBox="0 0 17 12.5" style="enable-background:new 0 0 17 12.5;" xml:space="preserve">
<title>Ресурс 7</title>
<g>
	<g>
		<path d="M17,4.9c0-0.3-0.2-0.6-0.5-0.8l-3.8-3.8c-0.4-0.4-1.1-0.3-1.4,0.1c-0.3,0.4-0.3,0.9,0,1.3l2.2,2.2H5c-0.6,0-1,0.4-1,1
			s0.4,1,1,1h8.6l-2.4,2.3c-0.4,0.4-0.5,1-0.1,1.4s1,0.5,1.4,0.1l0.1-0.1l4-4C16.9,5.5,17,5.3,17,4.9L17,4.9z"/>
	</g>
</g>
</svg>
