<?xml version="1.0" encoding="utf-8"?>
<!-- Generator: Adobe Illustrator 22.0.1, SVG Export Plug-In . SVG Version: 6.00 Build 0)  -->
<svg version="1.1" id="Layer_1" xmlns="http://www.w3.org/2000/svg" xmlns:xlink="http://www.w3.org/1999/xlink" x="0px" y="0px"
	 viewBox="0 0 75.7 75" style="enable-background:new 0 0 75.7 75;" xml:space="preserve">
<style type="text/css">
	.st0{fill:#757575;}
</style>
<g>
	<circle class="st0" cx="11.2" cy="11.6" r="8.5"/>
	<circle class="st0" cx="37.8" cy="11.6" r="8.5"/>
	<circle class="st0" cx="64.5" cy="11.6" r="8.5"/>
	<polygon class="st0" points="73.5,21.9 70.1,21.9 59,21.9 57.3,21.9 53.3,21.9 53.3,52.6 57.1,52.6 57.1,71.9 71.9,71.9 71.9,52.6 
		75.7,52.6 75.7,21.9 	"/>
	<polygon class="st0" points="16.7,21.9 5.6,21.9 2.7,21.9 0,21.9 0,52.6 3.8,52.6 3.8,71.9 18.6,71.9 18.6,52.6 22.3,52.6 
		22.3,21.9 18.8,21.9 	"/>
	<polygon class="st0" points="43.4,21.9 32.3,21.9 30,21.9 26.7,21.9 26.7,52.6 30.4,52.6 30.4,71.9 45.3,71.9 45.3,52.6 49,52.6 
		49,21.9 46.2,21.9 	"/>
</g>
</svg>
