<?xml version="1.0" encoding="utf-8"?>
<!-- Generator: Adobe Illustrator 21.1.0, SVG Export Plug-In . SVG Version: 6.00 Build 0)  -->
<svg version="1.1" id="Layer_1" xmlns="http://www.w3.org/2000/svg" xmlns:xlink="http://www.w3.org/1999/xlink" x="0px" y="0px"
	 viewBox="0 0 100 125" style="enable-background:new 0 0 100 125;" xml:space="preserve">
<g>
	<path d="M97.4,69.6l-3.5-15.4c-0.9-3.9-3.8-6.8-7.5-7.8c-0.5-0.1-1.1-0.1-1.5,0.2c-2,1-4.3,1.5-6.7,1.5s-4.7-0.6-6.7-1.5
		c-0.5-0.2-1-0.3-1.5-0.2c-1.9,0.5-3.7,1.6-5,3c2.5,2.1,4.3,4.9,5.1,8.2L73.6,73c0,0.2,0.1,0.3,0.1,0.5c1.5,0.1,3,0.1,4.5,0.1
		c6.1,0,12-0.5,17.5-1.5C96.9,71.9,97.7,70.8,97.4,69.6z"/>
	<circle cx="78.2" cy="32.8" r="10.9"/>
	<path d="M35,49.5c-1.3-1.5-3.1-2.5-5-3c-0.5-0.1-1.1-0.1-1.5,0.2c-2,1-4.3,1.5-6.7,1.5s-4.7-0.6-6.7-1.5c-0.5-0.2-1-0.3-1.5-0.2
		c-3.7,1-6.6,3.9-7.5,7.8L2.6,69.7c-0.3,1.2,0.5,2.3,1.7,2.5c5.5,1,11.4,1.5,17.5,1.5c1.5,0,3,0,4.5-0.1c0-0.2,0-0.3,0.1-0.5
		l3.5-15.4C30.7,54.4,32.5,51.5,35,49.5z"/>
	<circle cx="21.8" cy="32.8" r="10.9"/>
	<path d="M65.7,58.7c-0.9-3.9-3.8-6.8-7.5-7.8c-0.5-0.1-1.1-0.1-1.5,0.2c-2,1-4.3,1.5-6.7,1.5s-4.7-0.6-6.7-1.5
		c-0.5-0.2-1-0.3-1.5-0.2c-3.7,1-6.6,3.9-7.5,7.8l-3.5,15.4c-0.3,1.2,0.5,2.3,1.7,2.5c5.5,1,11.4,1.5,17.5,1.5s12-0.5,17.5-1.5
		c1.2-0.2,2-1.4,1.7-2.5L65.7,58.7z"/>
	<circle cx="50" cy="37.3" r="10.9"/>
</g>
</svg>
