<?xml version="1.0" encoding="utf-8"?>
<!-- Generator: Adobe Illustrator 22.0.1, SVG Export Plug-In . SVG Version: 6.00 Build 0)  -->
<svg version="1.1" id="Layer_1" xmlns="http://www.w3.org/2000/svg" xmlns:xlink="http://www.w3.org/1999/xlink" x="0px" y="0px"
	 viewBox="0 0 95.4 56.5" style="enable-background:new 0 0 95.4 56.5;" xml:space="preserve">
<style type="text/css">
	.st0{fill:#757575;}
</style>
<g>
	<path class="st0" d="M95.1,47.9l-3.5-15.4c-0.9-3.9-3.8-6.8-7.5-7.8c-0.5-0.1-1.1-0.1-1.5,0.2c-2,1-4.3,1.5-6.7,1.5
		s-4.7-0.6-6.7-1.5c-0.5-0.2-1-0.3-1.5-0.2c-1.9,0.5-3.7,1.6-5,3c2.5,2.1,4.3,4.9,5.1,8.2l3.5,15.4c0,0.2,0.1,0.3,0.1,0.5
		c1.5,0.1,3,0.1,4.5,0.1c6.1,0,12-0.5,17.5-1.5C94.6,50.2,95.4,49.1,95.1,47.9z"/>
	<circle class="st0" cx="75.9" cy="11.1" r="10.9"/>
	<path class="st0" d="M32.7,27.8c-1.3-1.5-3.1-2.5-5-3c-0.5-0.1-1.1-0.1-1.5,0.2c-2,1-4.3,1.5-6.7,1.5s-4.7-0.6-6.7-1.5
		c-0.5-0.2-1-0.3-1.5-0.2c-3.7,1-6.6,3.9-7.5,7.8L0.3,48C0,49.2,0.8,50.3,2,50.5c5.5,1,11.4,1.5,17.5,1.5c1.5,0,3,0,4.5-0.1
		c0-0.2,0-0.3,0.1-0.5L27.6,36C28.4,32.7,30.2,29.8,32.7,27.8z"/>
	<circle class="st0" cx="19.5" cy="11.1" r="10.9"/>
	<path class="st0" d="M63.4,37c-0.9-3.9-3.8-6.8-7.5-7.8c-0.5-0.1-1.1-0.1-1.5,0.2c-2,1-4.3,1.5-6.7,1.5S43,30.3,41,29.4
		c-0.5-0.2-1-0.3-1.5-0.2c-3.7,1-6.6,3.9-7.5,7.8l-3.5,15.4c-0.3,1.2,0.5,2.3,1.7,2.5c5.5,1,11.4,1.5,17.5,1.5s12-0.5,17.5-1.5
		c1.2-0.2,2-1.4,1.7-2.5L63.4,37z"/>
	<circle class="st0" cx="47.7" cy="15.6" r="10.9"/>
</g>
</svg>
