<?xml version="1.0" encoding="utf-8"?>
<!-- Generator: Adobe Illustrator 16.0.0, SVG Export Plug-In . SVG Version: 6.00 Build 0)  -->
<!DOCTYPE svg PUBLIC "-//W3C//DTD SVG 1.1//EN" "http://www.w3.org/Graphics/SVG/1.1/DTD/svg11.dtd">
<svg version="1.1" id="Layer_1" xmlns="http://www.w3.org/2000/svg" xmlns:xlink="http://www.w3.org/1999/xlink" x="0px" y="0px"
	 width="1024px" height="768px" viewBox="0 0 1024 768" enable-background="new 0 0 1024 768" xml:space="preserve">
<g>
	<circle fill="#FFFFFF" cx="239.104" cy="118.784" r="87.04"/>
	<circle fill="#FFFFFF" cx="511.488" cy="118.784" r="87.04"/>
	<circle fill="#FFFFFF" cx="784.896" cy="118.784" r="87.04"/>
	<polygon fill="#FFFFFF" points="877.056,224.256 842.24,224.256 728.576,224.256 711.168,224.256 670.208,224.256 670.208,538.624 
		709.12,538.624 709.12,736.256 860.672,736.256 860.672,538.624 899.584,538.624 899.584,224.256 	"/>
	<polygon fill="#FFFFFF" points="295.424,224.256 181.76,224.256 152.064,224.256 124.416,224.256 124.416,538.624 163.328,538.624 
		163.328,736.256 314.88,736.256 314.88,538.624 352.768,538.624 352.768,224.256 316.928,224.256 	"/>
	<polygon fill="#FFFFFF" points="568.832,224.256 455.168,224.256 431.616,224.256 397.824,224.256 397.824,538.624 
		435.712,538.624 435.712,736.256 588.288,736.256 588.288,538.624 626.176,538.624 626.176,224.256 597.504,224.256 	"/>
</g>
</svg>
