<?xml version="1.0" encoding="utf-8"?>
<!-- Generator: Adobe Illustrator 22.0.1, SVG Export Plug-In . SVG Version: 6.00 Build 0)  -->
<svg version="1.1" id="Layer_1" xmlns="http://www.w3.org/2000/svg" xmlns:xlink="http://www.w3.org/1999/xlink" x="0px" y="0px"
	 viewBox="0 0 94.6 90.9" style="enable-background:new 0 0 94.6 90.9;" xml:space="preserve">
<g>
	<path d="M50.3,1.8c-1.8-1.7-4.6-1.7-6.4,0L1,41c-1.9,1.8-2,4.7-0.4,6.8c1.8,1.9,4.7,2,6.8,0.4l39.7-36.4l39.7,36.1
		c0.9,0.8,2,1.2,3.2,1.2c1.3,0,2.6-0.5,3.6-1.5c1.8-1.9,1.7-5-0.4-6.8L50.3,1.8z"/>
	<path d="M12.1,47.4l5.8,35.9c0.7,4.6,4.7,7.9,9.4,7.9h40.1c4.6,0,8.7-3.3,9.4-7.9l5.8-35.9L47.1,16.1L12.1,47.4z M55.2,59.1
		l-2,22.5c-0.1,0.6-0.6,1.1-1.2,1.1h-9.9c-0.6,0-1.1-0.5-1.2-1.1l-2-22.5c-0.1-0.7,0.5-1.3,1.2-1.3H54
		C54.8,57.8,55.3,58.4,55.2,59.1z"/>
</g>
</svg>
