<?xml version="1.0" encoding="utf-8"?>
<!-- Generator: Adobe Illustrator 21.1.0, SVG Export Plug-In . SVG Version: 6.00 Build 0)  -->
<svg version="1.1" id="Layer_1" xmlns="http://www.w3.org/2000/svg" xmlns:xlink="http://www.w3.org/1999/xlink" x="0px" y="0px"
	 viewBox="0 0 100 125" style="enable-background:new 0 0 100 125;" xml:space="preserve">
<g>
	<path d="M55.7,7.9c9.4,0,17.1,10.7,13.5,21.2C65,41.2,52.7,41.6,52.7,50c0,8.4,12.3,8.8,16.5,20.9c3.7,10.5-4.1,21.2-13.5,21.2
		c-5.5,0-5.7,0-5.7,0s-0.2,0-5.7,0c-9.4,0-17.1-10.7-13.5-21.2C35,58.8,47.3,58.4,47.3,50c0-8.4-12.3-8.8-16.5-20.9
		C27.1,18.6,34.9,7.9,44.3,7.9c5.5,0,5.7,0,5.7,0S50.2,7.9,55.7,7.9 M55.7,5H50h-5.7C39,5,33.9,7.8,30.6,12.5
		C27,17.6,26,24.1,28.1,30c2.4,7,7.2,10.5,11,13.4c3.5,2.6,5.3,4,5.3,6.6c0,2.6-1.8,4-5.3,6.6c-3.8,2.8-8.6,6.4-11,13.4
		C26,75.9,27,82.4,30.6,87.5C33.9,92.2,39,95,44.3,95H50h5.7c5.3,0,10.4-2.8,13.7-7.5C73,82.4,74,75.9,71.9,70
		c-2.4-7-7.2-10.5-11-13.4c-3.5-2.6-5.3-4-5.3-6.6s1.8-4,5.3-6.6c3.8-2.8,8.6-6.4,11-13.4c2.1-5.9,1.1-12.5-2.5-17.6
		C66.1,7.8,61,5,55.7,5L55.7,5z"/>
	<path d="M68.6,74c-2.9,0.6-4.8,0.8-6.5,0.8c0,0-0.1,0-0.1,0c-0.1,0-0.2,0-0.3,0c-4.9-0.2-10.4-5.3-10.4-10.1v-5V50
		c0-4.8,3.4-7.3,7-10c1.7-1.3,3.6-2.7,5.3-4.4c-7-1.3-11.4-3.9-16.3-4.8c-4.7-0.9-9.7,0.6-13.2,2.1c2.1,3.2,4.9,5.3,7.5,7.2
		c3.6,2.7,7,5.2,7,10v9.7v5c0,4.4-2.5,6.3-5.7,6.6c-0.3,0-0.5,0-0.8,0.1c0,0-0.1,0-0.1,0c-0.2,0-0.4,0-0.6,0.1
		c-3.7,0.4-7.1,1.7-10.1,3c-0.5,3.8,0.4,7.5,2.7,10.7c2.5,3.6,6.4,5.7,10.2,5.7h11.4c3.9,0,7.7-2.1,10.2-5.7
		C68.3,81.8,69.2,77.9,68.6,74z"/>
</g>
</svg>
