<?xml version="1.0" encoding="utf-8"?>
<!-- Generator: Adobe Illustrator 21.1.0, SVG Export Plug-In . SVG Version: 6.00 Build 0)  -->
<svg version="1.1" id="Layer_1" xmlns="http://www.w3.org/2000/svg" xmlns:xlink="http://www.w3.org/1999/xlink" x="0px" y="0px"
	 viewBox="0 0 123 153.8" style="enable-background:new 0 0 123 153.8;" xml:space="preserve">
<g>
	<rect y="27.8" width="5.5" height="5.6"/>
	<rect y="103.5" width="5.5" height="5.6"/>
	<rect x="48.3" y="27.8" width="5.5" height="5.6"/>
	<rect x="48.3" y="103.5" width="5.5" height="5.6"/>
	<rect y="34.9" width="5.5" height="5.6"/>
	<rect y="110.5" width="5.5" height="5.6"/>
	<rect x="48.3" y="34.9" width="5.5" height="5.6"/>
	<rect x="48.3" y="110.5" width="5.5" height="5.6"/>
	<rect y="41.8" width="5.5" height="5.6"/>
	<rect y="117.4" width="5.5" height="5.6"/>
	<rect x="48.3" y="41.8" width="5.5" height="5.6"/>
	<rect x="48.3" y="117.4" width="5.5" height="5.6"/>
	<rect y="48.7" width="5.5" height="5.6"/>
	<rect x="48.3" y="48.7" width="5.5" height="5.6"/>
	<rect y="55.5" width="5.5" height="5.6"/>
	<rect x="48.3" y="55.5" width="5.5" height="5.6"/>
	<rect x="20.6" y="27.8" width="5.5" height="5.6"/>
	<rect x="20.6" y="103.5" width="5.5" height="5.6"/>
	<rect x="68.9" y="27.8" width="5.5" height="5.6"/>
	<rect x="96.7" y="27.8" width="5.5" height="5.6"/>
	<rect x="68.9" y="103.5" width="5.5" height="5.6"/>
	<rect x="96.7" y="103.5" width="5.5" height="5.6"/>
	<rect x="20.6" y="34.9" width="5.5" height="5.6"/>
	<rect x="20.6" y="110.5" width="5.5" height="5.6"/>
	<rect x="68.9" y="34.9" width="5.5" height="5.6"/>
	<rect x="96.7" y="34.9" width="5.5" height="5.6"/>
	<rect x="68.9" y="110.5" width="5.5" height="5.6"/>
	<rect x="96.7" y="110.5" width="5.5" height="5.6"/>
	<rect x="20.6" y="41.8" width="5.5" height="5.6"/>
	<rect x="20.6" y="117.4" width="5.5" height="5.6"/>
	<rect x="68.9" y="41.8" width="5.5" height="5.6"/>
	<rect x="96.7" y="41.8" width="5.5" height="5.6"/>
	<rect x="68.9" y="117.4" width="5.5" height="5.6"/>
	<rect x="96.7" y="117.4" width="5.5" height="5.6"/>
	<rect x="20.6" y="48.7" width="5.5" height="5.6"/>
	<rect x="68.9" y="48.7" width="5.5" height="5.6"/>
	<rect x="96.7" y="48.7" width="5.5" height="5.6"/>
	<rect x="20.6" y="55.5" width="5.5" height="5.6"/>
	<rect x="68.9" y="55.5" width="5.5" height="5.6"/>
	<rect x="96.7" y="55.5" width="5.5" height="5.6"/>
	<rect x="41.3" y="27.8" width="5.5" height="5.6"/>
	<rect x="41.3" y="103.5" width="5.5" height="5.6"/>
	<rect x="89.6" y="27.8" width="5.5" height="5.6"/>
	<rect x="117.4" y="27.8" width="5.5" height="5.6"/>
	<rect x="89.6" y="103.5" width="5.5" height="5.6"/>
	<rect x="117.4" y="103.5" width="5.5" height="5.6"/>
	<rect x="41.3" y="34.9" width="5.5" height="5.6"/>
	<rect x="41.3" y="110.5" width="5.5" height="5.6"/>
	<rect x="89.6" y="34.9" width="5.5" height="5.6"/>
	<rect x="117.4" y="34.9" width="5.5" height="5.6"/>
	<rect x="89.6" y="110.5" width="5.5" height="5.6"/>
	<rect x="117.4" y="110.5" width="5.5" height="5.6"/>
	<rect x="41.3" y="41.8" width="5.5" height="5.6"/>
	<rect x="41.3" y="117.4" width="5.5" height="5.6"/>
	<rect x="89.6" y="41.8" width="5.5" height="5.6"/>
	<rect x="117.4" y="41.8" width="5.5" height="5.6"/>
	<rect x="89.6" y="117.4" width="5.5" height="5.6"/>
	<rect x="117.4" y="117.4" width="5.5" height="5.6"/>
	<rect x="41.3" y="48.7" width="5.5" height="5.6"/>
	<rect x="89.6" y="48.7" width="5.5" height="5.6"/>
	<rect x="117.4" y="48.7" width="5.5" height="5.6"/>
	<rect x="41.3" y="55.5" width="5.5" height="5.6"/>
	<rect x="89.6" y="55.5" width="5.5" height="5.6"/>
	<rect x="117.4" y="55.5" width="5.5" height="5.6"/>
	<rect x="41.3" y="20.9" width="5.5" height="5.6"/>
	<rect x="41.3" y="96.6" width="5.5" height="5.6"/>
	<rect x="89.6" y="20.9" width="5.5" height="5.6"/>
	<rect x="117.4" y="20.9" width="5.5" height="5.6"/>
	<rect x="89.6" y="96.6" width="5.5" height="5.6"/>
	<rect x="117.4" y="96.6" width="5.5" height="5.6"/>
	<rect x="41.3" y="14" width="5.5" height="5.6"/>
	<rect x="41.3" y="89.6" width="5.5" height="5.6"/>
	<rect x="89.6" y="14" width="5.5" height="5.6"/>
	<rect x="117.4" y="14" width="5.5" height="5.6"/>
	<rect x="89.6" y="89.6" width="5.5" height="5.6"/>
	<rect x="117.4" y="89.6" width="5.5" height="5.6"/>
	<rect x="41.3" y="7" width="5.5" height="5.6"/>
	<rect x="41.3" y="82.7" width="5.5" height="5.6"/>
	<rect x="89.6" y="7" width="5.5" height="5.6"/>
	<rect x="117.4" y="7" width="5.5" height="5.6"/>
	<rect x="89.6" y="82.7" width="5.5" height="5.6"/>
	<rect x="117.4" y="82.7" width="5.5" height="5.6"/>
	<rect x="41.3" y="0.1" width="5.5" height="5.6"/>
	<rect x="41.3" y="75.8" width="5.5" height="5.6"/>
	<rect x="89.6" y="0.1" width="5.5" height="5.6"/>
	<rect x="117.4" y="0.1" width="5.5" height="5.6"/>
	<rect x="89.6" y="75.8" width="5.5" height="5.6"/>
	<rect x="117.4" y="75.8" width="5.5" height="5.6"/>
	<rect x="41.3" y="68.8" width="5.5" height="5.6"/>
	<rect x="89.6" y="68.8" width="5.5" height="5.6"/>
	<rect x="117.4" y="68.8" width="5.5" height="5.6"/>
	<rect x="41.3" y="62.2" width="5.5" height="5.6"/>
	<rect x="89.6" y="62.2" width="5.5" height="5.6"/>
	<rect x="117.4" y="62.2" width="5.5" height="5.6"/>
	<rect x="34.4" y="0.1" width="5.5" height="5.6"/>
	<rect x="34.4" y="75.8" width="5.5" height="5.6"/>
	<rect x="82.7" y="0.1" width="5.5" height="5.6"/>
	<rect x="110.5" y="0.1" width="5.5" height="5.6"/>
	<rect x="82.7" y="75.8" width="5.5" height="5.6"/>
	<rect x="110.5" y="75.8" width="5.5" height="5.6"/>
	<rect x="34.4" y="7" width="5.5" height="5.6"/>
	<rect x="34.4" y="82.7" width="5.5" height="5.6"/>
	<rect x="82.7" y="7" width="5.5" height="5.6"/>
	<rect x="110.5" y="7" width="5.5" height="5.6"/>
	<rect x="82.7" y="82.7" width="5.5" height="5.6"/>
	<rect x="110.5" y="82.7" width="5.5" height="5.6"/>
	<rect x="34.4" y="14" width="5.5" height="5.6"/>
	<rect x="34.4" y="89.7" width="5.5" height="5.6"/>
	<rect x="82.7" y="14" width="5.5" height="5.6"/>
	<rect x="110.5" y="14" width="5.5" height="5.6"/>
	<rect x="82.7" y="89.7" width="5.5" height="5.6"/>
	<rect x="110.5" y="89.7" width="5.5" height="5.6"/>
	<rect x="34.4" y="20.8" width="5.5" height="5.6"/>
	<rect x="34.4" y="96.5" width="5.5" height="5.6"/>
	<rect x="82.7" y="20.8" width="5.5" height="5.6"/>
	<rect x="110.5" y="20.8" width="5.5" height="5.6"/>
	<rect x="82.7" y="96.5" width="5.5" height="5.6"/>
	<rect x="110.5" y="96.5" width="5.5" height="5.6"/>
	<rect x="34.4" y="68.8" width="5.5" height="5.6"/>
	<rect x="82.7" y="68.8" width="5.5" height="5.6"/>
	<rect x="110.5" y="68.8" width="5.5" height="5.6"/>
	<rect x="27.5" y="0.1" width="5.5" height="5.6"/>
	<rect x="27.5" y="75.8" width="5.5" height="5.6"/>
	<rect x="75.8" y="0.1" width="5.5" height="5.6"/>
	<rect x="103.6" y="0.1" width="5.5" height="5.6"/>
	<rect x="75.8" y="75.8" width="5.5" height="5.6"/>
	<rect x="103.6" y="75.8" width="5.5" height="5.6"/>
	<rect x="27.5" y="7" width="5.5" height="5.6"/>
	<rect x="27.5" y="82.7" width="5.5" height="5.6"/>
	<rect x="75.8" y="7" width="5.5" height="5.6"/>
	<rect x="103.6" y="7" width="5.5" height="5.6"/>
	<rect x="75.8" y="82.7" width="5.5" height="5.6"/>
	<rect x="103.6" y="82.7" width="5.5" height="5.6"/>
	<rect x="27.5" y="14" width="5.5" height="5.6"/>
	<rect x="27.5" y="89.7" width="5.5" height="5.6"/>
	<rect x="75.8" y="14" width="5.5" height="5.6"/>
	<rect x="103.6" y="14" width="5.5" height="5.6"/>
	<rect x="75.8" y="89.7" width="5.5" height="5.6"/>
	<rect x="103.6" y="89.7" width="5.5" height="5.6"/>
	<rect x="27.5" y="20.8" width="5.5" height="5.6"/>
	<rect x="27.5" y="96.5" width="5.5" height="5.6"/>
	<rect x="75.8" y="20.8" width="5.5" height="5.6"/>
	<rect x="103.6" y="20.8" width="5.5" height="5.6"/>
	<rect x="75.8" y="96.5" width="5.5" height="5.6"/>
	<rect x="103.6" y="96.5" width="5.5" height="5.6"/>
	<rect x="27.5" y="68.8" width="5.5" height="5.6"/>
	<rect x="75.8" y="68.8" width="5.5" height="5.6"/>
	<rect x="103.6" y="68.8" width="5.5" height="5.6"/>
	<rect x="20.6" y="0.1" width="5.5" height="5.6"/>
	<rect x="20.6" y="75.8" width="5.5" height="5.6"/>
	<rect x="68.9" y="0.1" width="5.5" height="5.6"/>
	<rect x="96.7" y="0.1" width="5.5" height="5.6"/>
	<rect x="68.9" y="75.8" width="5.5" height="5.6"/>
	<rect x="96.7" y="75.8" width="5.5" height="5.6"/>
	<rect x="20.6" y="7" width="5.5" height="5.6"/>
	<rect x="20.6" y="82.7" width="5.5" height="5.6"/>
	<rect x="68.9" y="7" width="5.5" height="5.6"/>
	<rect x="96.7" y="7" width="5.5" height="5.6"/>
	<rect x="68.9" y="82.7" width="5.5" height="5.6"/>
	<rect x="96.7" y="82.7" width="5.5" height="5.6"/>
	<rect x="20.6" y="14" width="5.5" height="5.6"/>
	<rect x="20.6" y="89.7" width="5.5" height="5.6"/>
	<rect x="68.9" y="14" width="5.5" height="5.6"/>
	<rect x="96.7" y="14" width="5.5" height="5.6"/>
	<rect x="68.9" y="89.7" width="5.5" height="5.6"/>
	<rect x="96.7" y="89.7" width="5.5" height="5.6"/>
	<rect x="20.6" y="20.8" width="5.5" height="5.6"/>
	<rect x="20.6" y="96.5" width="5.5" height="5.6"/>
	<rect x="68.9" y="20.8" width="5.5" height="5.6"/>
	<rect x="96.7" y="20.8" width="5.5" height="5.6"/>
	<rect x="68.9" y="96.5" width="5.5" height="5.6"/>
	<rect x="96.7" y="96.5" width="5.5" height="5.6"/>
	<rect x="20.6" y="68.8" width="5.5" height="5.6"/>
	<rect x="68.9" y="68.8" width="5.5" height="5.6"/>
	<rect x="96.7" y="68.8" width="5.5" height="5.6"/>
	<rect x="13.8" y="0.1" width="5.5" height="5.6"/>
	<rect x="13.8" y="75.8" width="5.5" height="5.6"/>
	<rect x="62" y="0.1" width="5.5" height="5.6"/>
	<rect x="62" y="75.8" width="5.5" height="5.6"/>
	<rect x="13.8" y="68.8" width="5.5" height="5.6"/>
	<rect x="62" y="68.8" width="5.5" height="5.6"/>
	<rect x="13.8" y="7" width="5.5" height="5.6"/>
	<rect x="13.8" y="82.7" width="5.5" height="5.6"/>
	<rect x="62" y="7" width="5.5" height="5.6"/>
	<rect x="62" y="82.7" width="5.5" height="5.6"/>
	<rect x="13.8" y="14" width="5.5" height="5.6"/>
	<rect x="13.8" y="89.7" width="5.5" height="5.6"/>
	<rect x="62" y="14" width="5.5" height="5.6"/>
	<rect x="62" y="89.7" width="5.5" height="5.6"/>
	<rect x="13.8" y="20.8" width="5.5" height="5.6"/>
	<rect x="13.8" y="96.5" width="5.5" height="5.6"/>
	<rect x="62" y="20.8" width="5.5" height="5.6"/>
	<rect x="62" y="96.5" width="5.5" height="5.6"/>
	<rect x="6.9" y="7" width="5.5" height="5.6"/>
	<rect x="6.9" y="82.7" width="5.5" height="5.6"/>
	<rect x="55.2" y="7" width="5.5" height="5.6"/>
	<rect x="55.2" y="82.7" width="5.5" height="5.6"/>
	<rect x="6.9" y="14" width="5.5" height="5.6"/>
	<rect x="6.9" y="89.7" width="5.5" height="5.6"/>
	<rect x="55.2" y="14" width="5.5" height="5.6"/>
	<rect x="55.2" y="89.7" width="5.5" height="5.6"/>
	<rect x="6.9" y="20.8" width="5.5" height="5.6"/>
	<rect x="6.9" y="96.5" width="5.5" height="5.6"/>
	<rect x="55.2" y="20.8" width="5.5" height="5.6"/>
	<rect x="55.2" y="96.5" width="5.5" height="5.6"/>
	<rect x="6.9" y="0.1" width="5.5" height="5.6"/>
	<rect x="6.9" y="75.8" width="5.5" height="5.6"/>
	<rect x="55.2" y="0.1" width="5.5" height="5.6"/>
	<rect x="55.2" y="75.8" width="5.5" height="5.6"/>
	<rect x="6.9" y="68.9" width="5.5" height="5.6"/>
	<rect x="55.2" y="68.9" width="5.5" height="5.6"/>
	<rect y="7" width="5.5" height="5.6"/>
	<rect y="82.7" width="5.5" height="5.6"/>
	<rect x="48.3" y="7" width="5.5" height="5.6"/>
	<rect x="48.3" y="82.7" width="5.5" height="5.6"/>
	<rect y="14" width="5.5" height="5.6"/>
	<rect y="89.7" width="5.5" height="5.6"/>
	<rect x="48.3" y="14" width="5.5" height="5.6"/>
	<rect x="48.3" y="89.7" width="5.5" height="5.6"/>
	<rect y="20.8" width="5.5" height="5.6"/>
	<rect y="96.5" width="5.5" height="5.6"/>
	<rect x="48.3" y="20.8" width="5.5" height="5.6"/>
	<rect x="48.3" y="96.5" width="5.5" height="5.6"/>
	<rect y="0.1" width="5.5" height="5.6"/>
	<rect y="75.8" width="5.5" height="5.6"/>
	<rect x="48.3" y="0.1" width="5.5" height="5.6"/>
	<rect x="48.3" y="75.8" width="5.5" height="5.6"/>
	<rect y="68.9" width="5.5" height="5.6"/>
	<rect x="48.3" y="68.9" width="5.5" height="5.6"/>
	<rect y="62.2" width="5.5" height="5.6"/>
	<rect x="48.3" y="62.2" width="5.5" height="5.6"/>
	<rect x="6.9" y="62.2" width="5.5" height="5.6"/>
	<rect x="55.2" y="62.2" width="5.5" height="5.6"/>
	<rect x="13.8" y="62.2" width="5.5" height="5.6"/>
	<rect x="62" y="62.2" width="5.5" height="5.6"/>
	<rect x="20.6" y="62.2" width="5.5" height="5.6"/>
	<rect x="68.9" y="62.2" width="5.5" height="5.6"/>
	<rect x="96.7" y="62.2" width="5.5" height="5.6"/>
	<rect x="27.5" y="62.2" width="5.5" height="5.6"/>
	<rect x="75.8" y="62.2" width="5.5" height="5.6"/>
	<rect x="103.6" y="62.2" width="5.5" height="5.6"/>
	<rect x="34.4" y="62.2" width="5.5" height="5.6"/>
	<rect x="82.7" y="62.2" width="5.5" height="5.6"/>
	<rect x="110.5" y="62.2" width="5.5" height="5.6"/>
	<rect x="13.7" y="27.8" width="5.5" height="5.6"/>
	<rect x="13.7" y="103.5" width="5.5" height="5.6"/>
	<rect x="62" y="27.8" width="5.5" height="5.6"/>
	<rect x="62" y="103.5" width="5.5" height="5.6"/>
	<rect x="13.7" y="34.9" width="5.5" height="5.6"/>
	<rect x="13.7" y="110.5" width="5.5" height="5.6"/>
	<rect x="62" y="34.9" width="5.5" height="5.6"/>
	<rect x="62" y="110.5" width="5.5" height="5.6"/>
	<rect x="13.7" y="41.8" width="5.5" height="5.6"/>
	<rect x="13.7" y="117.4" width="5.5" height="5.6"/>
	<rect x="62" y="41.8" width="5.5" height="5.6"/>
	<rect x="62" y="117.4" width="5.5" height="5.6"/>
	<rect x="13.7" y="48.7" width="5.5" height="5.6"/>
	<rect x="62" y="48.7" width="5.5" height="5.6"/>
	<rect x="13.7" y="55.5" width="5.5" height="5.6"/>
	<rect x="62" y="55.5" width="5.5" height="5.6"/>
	<rect x="34.4" y="27.8" width="5.5" height="5.6"/>
	<rect x="34.4" y="103.5" width="5.5" height="5.6"/>
	<rect x="82.6" y="27.8" width="5.5" height="5.6"/>
	<rect x="110.4" y="27.8" width="5.5" height="5.6"/>
	<rect x="82.6" y="103.5" width="5.5" height="5.6"/>
	<rect x="110.4" y="103.5" width="5.5" height="5.6"/>
	<rect x="34.4" y="34.9" width="5.5" height="5.6"/>
	<rect x="34.4" y="110.5" width="5.5" height="5.6"/>
	<rect x="82.6" y="34.9" width="5.5" height="5.6"/>
	<rect x="110.4" y="34.9" width="5.5" height="5.6"/>
	<rect x="82.6" y="110.5" width="5.5" height="5.6"/>
	<rect x="110.4" y="110.5" width="5.5" height="5.6"/>
	<rect x="34.4" y="41.8" width="5.5" height="5.6"/>
	<rect x="34.4" y="117.4" width="5.5" height="5.6"/>
	<rect x="82.6" y="41.8" width="5.5" height="5.6"/>
	<rect x="110.4" y="41.8" width="5.5" height="5.6"/>
	<rect x="82.6" y="117.4" width="5.5" height="5.6"/>
	<rect x="110.4" y="117.4" width="5.5" height="5.6"/>
	<rect x="34.4" y="48.7" width="5.5" height="5.6"/>
	<rect x="82.6" y="48.7" width="5.5" height="5.6"/>
	<rect x="110.4" y="48.7" width="5.5" height="5.6"/>
	<rect x="34.4" y="55.5" width="5.5" height="5.6"/>
	<rect x="82.6" y="55.5" width="5.5" height="5.6"/>
	<rect x="110.4" y="55.5" width="5.5" height="5.6"/>
	<polygon points="12.3,27.8 12.3,33.2 12.3,33.4 12.2,33.4 6.8,33.4 6.8,27.8 	"/>
	<polygon points="12.3,103.5 12.3,108.9 12.3,109 12.2,109 6.8,109 6.8,103.5 	"/>
	<polygon points="60.6,27.8 60.6,33.2 60.6,33.4 60.5,33.4 55.1,33.4 55.1,27.8 	"/>
	<polygon points="60.6,103.5 60.6,108.9 60.6,109 60.5,109 55.1,109 55.1,103.5 	"/>
	<polygon points="12.3,34.9 12.3,40.3 12.3,40.4 12.2,40.4 6.8,40.4 6.8,34.9 	"/>
	<polygon points="12.3,110.5 12.3,116 12.3,116.1 12.2,116.1 6.8,116.1 6.8,110.5 	"/>
	<polygon points="60.6,34.9 60.6,40.3 60.6,40.4 60.5,40.4 55.1,40.4 55.1,34.9 	"/>
	<polygon points="60.6,110.5 60.6,116 60.6,116.1 60.5,116.1 55.1,116.1 55.1,110.5 	"/>
	<polygon points="12.3,41.8 12.3,47.2 12.3,47.3 12.2,47.3 6.8,47.3 6.8,41.8 	"/>
	<polygon points="12.3,117.4 12.3,122.9 12.3,123 12.2,123 6.8,123 6.8,117.4 	"/>
	<polygon points="60.6,41.8 60.6,47.2 60.6,47.3 60.5,47.3 55.1,47.3 55.1,41.8 	"/>
	<polygon points="60.6,117.4 60.6,122.9 60.6,123 60.5,123 55.1,123 55.1,117.4 	"/>
	<polygon points="12.3,48.7 12.3,54.2 12.3,54.3 12.2,54.3 6.8,54.3 6.8,48.7 	"/>
	<polygon points="60.6,48.7 60.6,54.2 60.6,54.3 60.5,54.3 55.1,54.3 55.1,48.7 	"/>
	<polygon points="12.3,55.5 12.3,60.9 12.3,61.1 12.2,61.1 6.8,61.1 6.8,55.5 	"/>
	<polygon points="60.6,55.5 60.6,60.9 60.6,61.1 60.5,61.1 55.1,61.1 55.1,55.5 	"/>
	<polygon points="33,27.8 33,33.2 33,33.4 32.9,33.4 27.5,33.4 27.5,27.8 	"/>
	<polygon points="33,103.5 33,108.9 33,109 32.9,109 27.5,109 27.5,103.5 	"/>
	<polygon points="81.2,27.8 81.2,33.2 81.2,33.4 81.1,33.4 75.7,33.4 75.7,27.8 	"/>
	<polygon points="109,27.8 109,33.2 109,33.4 108.9,33.4 103.5,33.4 103.5,27.8 	"/>
	<polygon points="81.2,103.5 81.2,108.9 81.2,109 81.1,109 75.7,109 75.7,103.5 	"/>
	<polygon points="109,103.5 109,108.9 109,109 108.9,109 103.5,109 103.5,103.5 	"/>
	<polygon points="33,34.9 33,40.3 33,40.4 32.9,40.4 27.5,40.4 27.5,34.9 	"/>
	<polygon points="33,110.5 33,116 33,116.1 32.9,116.1 27.5,116.1 27.5,110.5 	"/>
	<polygon points="81.2,34.9 81.2,40.3 81.2,40.4 81.1,40.4 75.7,40.4 75.7,34.9 	"/>
	<polygon points="109,34.9 109,40.3 109,40.4 108.9,40.4 103.5,40.4 103.5,34.9 	"/>
	<polygon points="81.2,110.5 81.2,116 81.2,116.1 81.1,116.1 75.7,116.1 75.7,110.5 	"/>
	<polygon points="109,110.5 109,116 109,116.1 108.9,116.1 103.5,116.1 103.5,110.5 	"/>
	<polygon points="33,41.8 33,47.2 33,47.3 32.9,47.3 27.5,47.3 27.5,41.8 	"/>
	<polygon points="33,117.4 33,122.9 33,123 32.9,123 27.5,123 27.5,117.4 	"/>
	<polygon points="81.2,41.8 81.2,47.2 81.2,47.3 81.1,47.3 75.7,47.3 75.7,41.8 	"/>
	<polygon points="109,41.8 109,47.2 109,47.3 108.9,47.3 103.5,47.3 103.5,41.8 	"/>
	<polygon points="81.2,117.4 81.2,122.9 81.2,123 81.1,123 75.7,123 75.7,117.4 	"/>
	<polygon points="109,117.4 109,122.9 109,123 108.9,123 103.5,123 103.5,117.4 	"/>
	<polygon points="33,48.7 33,54.2 33,54.3 32.9,54.3 27.5,54.3 27.5,48.7 	"/>
	<polygon points="81.2,48.7 81.2,54.2 81.2,54.3 81.1,54.3 75.7,54.3 75.7,48.7 	"/>
	<polygon points="109,48.7 109,54.2 109,54.3 108.9,54.3 103.5,54.3 103.5,48.7 	"/>
	<polygon points="33,55.5 33,60.9 33,61.1 32.9,61.1 27.5,61.1 27.5,55.5 	"/>
	<polygon points="81.2,55.5 81.2,60.9 81.2,61.1 81.1,61.1 75.7,61.1 75.7,55.5 	"/>
	<polygon points="109,55.5 109,60.9 109,61.1 108.9,61.1 103.5,61.1 103.5,55.5 	"/>
</g>
</svg>
