<?xml version="1.0" encoding="utf-8"?>
<!-- Generator: Adobe Illustrator 22.0.1, SVG Export Plug-In . SVG Version: 6.00 Build 0)  -->
<svg version="1.1"
	 id="Layer_1" xmlns:cc="http://creativecommons.org/ns#" xmlns:dc="http://purl.org/dc/elements/1.1/" xmlns:inkscape="http://www.inkscape.org/namespaces/inkscape" xmlns:rdf="http://www.w3.org/1999/02/22-rdf-syntax-ns#" xmlns:sodipodi="http://sodipodi.sourceforge.net/DTD/sodipodi-0.dtd" xmlns:svg="http://www.w3.org/2000/svg"
	 xmlns="http://www.w3.org/2000/svg" xmlns:xlink="http://www.w3.org/1999/xlink" x="0px" y="0px" viewBox="0 0 100 100"
	 style="enable-background:new 0 0 100 100;" xml:space="preserve">
<style type="text/css">
	.st0{fill:#757575;}
</style>
<g transform="translate(0,-952.36218)">
	<path class="st0" d="M36.4,962.6l-8,13.6H10.2c-5.7,0-10.2,4.6-10.2,10.2v45.5c0,5.7,4.6,10.2,10.2,10.2h79.5
		c5.7,0,10.2-4.6,10.2-10.2v-45.5c0-5.7-4.6-10.2-10.2-10.2H71.6l-8-13.6L36.4,962.6L36.4,962.6z M50,983
		c14.4,0,26.1,11.7,26.1,26.1c0,14.4-11.7,26.1-26.1,26.1c-14.4,0-26.1-11.7-26.1-26.1C23.9,994.8,35.6,983,50,983L50,983z
		 M85.2,986.5c1.9,0,3.4,1.5,3.4,3.4c0,1.9-1.5,3.4-3.4,3.4s-3.4-1.5-3.4-3.4C81.8,988,83.3,986.5,85.2,986.5z M50,987.6
		c-12,0-21.6,9.6-21.6,21.6c0,12,9.6,21.6,21.6,21.6c12,0,21.6-9.6,21.6-21.6C71.6,997.2,62,987.6,50,987.6L50,987.6z M50,996.7
		c6.9,0,12.5,5.6,12.5,12.5c0,6.9-5.6,12.5-12.5,12.5s-12.5-5.6-12.5-12.5S43.1,996.7,50,996.7z"/>
</g>
</svg>
