<?xml version="1.0" encoding="utf-8"?>
<!-- Generator: Adobe Illustrator 22.0.1, SVG Export Plug-In . SVG Version: 6.00 Build 0)  -->
<svg version="1.1"
	 id="Layer_1" xmlns:cc="http://creativecommons.org/ns#" xmlns:dc="http://purl.org/dc/elements/1.1/" xmlns:inkscape="http://www.inkscape.org/namespaces/inkscape" xmlns:rdf="http://www.w3.org/1999/02/22-rdf-syntax-ns#" xmlns:sodipodi="http://sodipodi.sourceforge.net/DTD/sodipodi-0.dtd" xmlns:svg="http://www.w3.org/2000/svg"
	 xmlns="http://www.w3.org/2000/svg" xmlns:xlink="http://www.w3.org/1999/xlink" x="0px" y="0px" viewBox="0 0 100 85.4"
	 style="enable-background:new 0 0 100 85.4;" xml:space="preserve">
<g transform="translate(0,-952.36218)">
	<path d="M41,952.4c-18.7,0-34,15.3-34,34s15.3,34,34,34c7.2,0,13.9-2.3,19.4-6.1l22.3,22.4c2.3,2.3,6.2,2.3,8.5,0s2.3-6.2,0-8.5
		l-22.4-22.3c3.9-5.5,6.1-12.2,6.1-19.4C75,967.7,59.7,952.4,41,952.4z M41,964.4c12.2,0,22,9.8,22,22s-9.8,22-22,22s-22-9.8-22-22
		C19,974.1,28.8,964.4,41,964.4z"/>
</g>
</svg>
