<?xml version="1.0" encoding="utf-8"?>
<!-- Generator: Adobe Illustrator 22.0.1, SVG Export Plug-In . SVG Version: 6.00 Build 0)  -->
<svg version="1.1" id="Layer_1" xmlns="http://www.w3.org/2000/svg" xmlns:xlink="http://www.w3.org/1999/xlink" x="0px" y="0px"
	 viewBox="0 0 89.8 89.6" style="enable-background:new 0 0 89.8 89.6;" xml:space="preserve">
<style type="text/css">
	.st0{fill:none;}
</style>
<g>
	<path class="st0" d="M44.9,26.2c-10.3,0-18.8,8.3-18.8,18.8c0,10.3,8.5,18.8,18.8,18.8c10.5,0,18.8-8.5,18.8-18.8
		C63.7,34.6,55.4,26.2,44.9,26.2z M44.9,52.8c-4.3,0-7.6-3.5-7.6-7.8s3.4-7.8,7.6-7.8c4.3,0,7.8,3.5,7.8,7.8S49.2,52.8,44.9,52.8z"
		/>
	<path d="M44.9,37.2c-4.3,0-7.6,3.5-7.6,7.8s3.4,7.8,7.6,7.8c4.3,0,7.8-3.5,7.8-7.8C52.7,40.8,49.2,37.2,44.9,37.2z"/>
	<path d="M88.1,37.4l-10.8-2.1c-0.7-2.1-1.6-4.3-2.7-6.2l6.4-9c0.5-0.9,0.4-2.1-0.4-2.8l-7.7-7.9C72.2,8.7,71,8.5,70.1,9l-9,6.2
		c-1.9-1.1-4.1-2-6.2-2.5l-2-10.9C52.7,0.9,51.6,0,50.6,0H39.8c-1.1,0-2.1,0.9-2.3,1.8l-1.9,10.8c-2.3,0.7-4.4,1.6-6.6,2.7L19.7,9
		c-0.7-0.7-2.1-0.5-2.8,0.2L9.3,17c-0.7,0.7-0.9,2-0.4,2.8l6.4,9.2c-1.2,2-1.9,4.1-2.7,6.2L1.8,37.4c-1,0.2-1.9,1-1.9,2.1v11
		c0,1.1,0.9,2,1.9,2.1l10.8,2.1c0.7,2.1,1.6,4.3,2.7,6.4l-6.2,9c-0.5,0.9-0.5,2.1,0.2,2.8l7.8,7.8c0.7,0.7,2,0.9,2.8,0.2l9.2-6.2
		c1.9,1.1,4.1,1.9,6.4,2.7l1.9,10.8c0.2,0.9,1.2,1.8,2.1,1.8h11c1.1,0,2.1-0.9,2.3-1.8l1.9-11c2.1-0.7,4.3-1.4,6.2-2.5l9,6
		c0.9,0.7,2.1,0.5,2.8-0.2l7.6-7.8c0.9-0.7,0.9-1.9,0.4-2.8l-6.2-9c1.1-1.9,1.9-4.1,2.7-6.2L88,52.6c1.1-0.2,1.8-1.1,1.8-2.1v-11
		C89.9,38.4,89.2,37.6,88.1,37.4z M44.9,63.8c-10.3,0-18.8-8.5-18.8-18.8c0-10.5,8.5-18.8,18.8-18.8c10.5,0,18.8,8.3,18.8,18.8
		C63.7,55.3,55.4,63.8,44.9,63.8z"/>
</g>
</svg>
