<?xml version="1.0" encoding="utf-8"?>
<!-- Generator: Adobe Illustrator 21.1.0, SVG Export Plug-In . SVG Version: 6.00 Build 0)  -->
<svg version="1.1"
	 id="Layer_1" xmlns:cc="http://creativecommons.org/ns#" xmlns:dc="http://purl.org/dc/elements/1.1/" xmlns:inkscape="http://www.inkscape.org/namespaces/inkscape" xmlns:rdf="http://www.w3.org/1999/02/22-rdf-syntax-ns#" xmlns:sodipodi="http://sodipodi.sourceforge.net/DTD/sodipodi-0.dtd" xmlns:svg="http://www.w3.org/2000/svg"
	 xmlns="http://www.w3.org/2000/svg" xmlns:xlink="http://www.w3.org/1999/xlink" x="0px" y="0px" viewBox="0 0 100 125"
	 style="enable-background:new 0 0 100 125;" xml:space="preserve">
<g transform="translate(0,-952.36218)">
	<path d="M50,962.4c-22.1,0-40,17.9-40,40s17.9,40,40,40s40-17.9,40-40S72.1,962.4,50,962.4z M50,971.4c1.1,0,2,0.9,2,2v27.8
		l22.4,12.9c1,0.6,1.3,1.8,0.8,2.7s-1.8,1.3-2.8,0.7c-7.8-4.5-15.6-9-23.4-13.5c-0.6-0.3-1-1-1-1.7v-29
		C48,972.3,48.9,971.4,50,971.4L50,971.4z"/>
</g>
</svg>
