<?xml version="1.0" encoding="utf-8"?>
<!-- Generator: Adobe Illustrator 22.0.1, SVG Export Plug-In . SVG Version: 6.00 Build 0)  -->
<svg version="1.1" id="Layer_1" xmlns="http://www.w3.org/2000/svg" xmlns:xlink="http://www.w3.org/1999/xlink" x="0px" y="0px"
	 viewBox="0 0 49.7 49.8" style="enable-background:new 0 0 49.7 49.8;" xml:space="preserve">
<style type="text/css">
	.st0{fill:#757575;}
</style>
<path class="st0" d="M49.7,13.7h-3.3c-0.3-2.9-0.9-5.7-1.9-7.1s-2-2.2-3.1-2.5S39,3.6,37.5,3.6h-7.9v37.3c0,1.4,0.1,2.4,0.4,3.1
	c0.3,0.7,0.9,1.3,1.9,1.7c1,0.4,2.5,0.6,4.4,0.6v3.1H13.1v-3.1c2.8,0,4.7-0.4,5.5-1.2c0.8-0.8,1.2-2.2,1.2-4.2V3.6h-6.9
	c-1.9,0-3.6,0.2-4.8,0.5C6.8,4.4,5.7,5.2,4.7,6.6C3.7,8,3.2,10.9,3,13.7h-3.3v-14h49.9L49.7,13.7L49.7,13.7z"/>
</svg>
