<?xml version="1.0" encoding="utf-8"?>
<!-- Generator: Adobe Illustrator 22.0.1, SVG Export Plug-In . SVG Version: 6.00 Build 0)  -->
<svg version="1.1" id="Layer_1" xmlns="http://www.w3.org/2000/svg" xmlns:xlink="http://www.w3.org/1999/xlink" x="0px" y="0px"
	 viewBox="0 0 65 65.1" style="enable-background:new 0 0 65 65.1;" xml:space="preserve">
<style type="text/css">
	.st0{fill:#757575;}
</style>
<path class="st0" d="M57.3,21.4h-3.3c-0.3-2.9-0.9-5.7-1.9-7.1s-2-2.2-3.1-2.5c-1.1-0.3-2.4-0.5-3.9-0.5h-7.9v37.3
	c0,1.4,0.1,2.4,0.4,3.1c0.3,0.7,0.9,1.3,1.9,1.7c1,0.4,2.5,0.6,4.4,0.6v3.1H20.8V54c2.8,0,4.7-0.4,5.5-1.2c0.8-0.8,1.2-2.2,1.2-4.2
	V11.3h-6.9c-1.9,0-3.6,0.2-4.8,0.5c-1.3,0.3-2.4,1.1-3.4,2.5s-1.5,4.3-1.7,7.1H7.3v-14h49.9L57.3,21.4L57.3,21.4z"/>
</svg>
