<?xml version="1.0" encoding="utf-8"?>
<!-- Generator: Adobe Illustrator 22.0.1, SVG Export Plug-In . SVG Version: 6.00 Build 0)  -->
<svg version="1.1" id="Layer_1" xmlns="http://www.w3.org/2000/svg" xmlns:xlink="http://www.w3.org/1999/xlink" x="0px" y="0px"
	 viewBox="0 0 100 125" style="enable-background:new 0 0 100 125;" xml:space="preserve">
<path d="M76.3,39.1H73c-0.3-2.9-0.9-5.7-1.9-7.1c-1-1.4-2-2.2-3.1-2.5c-1.1-0.3-2.4-0.5-3.9-0.5h-7.9v37.3c0,1.4,0.1,2.4,0.4,3.1
	c0.3,0.7,0.9,1.3,1.9,1.7c1,0.4,2.5,0.6,4.4,0.6v3.1H39.7v-3.1c2.8,0,4.7-0.4,5.5-1.2c0.8-0.8,1.2-2.2,1.2-4.2V29h-6.9
	c-1.9,0-3.6,0.2-4.8,0.5c-1.3,0.3-2.4,1.1-3.4,2.5c-1,1.4-1.5,4.3-1.7,7.1h-3.3v-14h49.9L76.3,39.1L76.3,39.1z"/>
</svg>
