<?xml version="1.0" encoding="utf-8"?>
<!-- Generator: Adobe Illustrator 22.0.1, SVG Export Plug-In . SVG Version: 6.00 Build 0)  -->
<svg version="1.1" id="Layer_1" xmlns="http://www.w3.org/2000/svg" xmlns:xlink="http://www.w3.org/1999/xlink" x="0px" y="0px"
	 viewBox="0 0 285.6 285.9" style="enable-background:new 0 0 285.6 285.9;" xml:space="preserve">
<g>
	<rect x="99.5" y="200.2" width="30.1" height="2.5"/>
	<rect x="231.8" y="200.2" width="53.8" height="2.5"/>
	<path d="M230.2,108.9c2.7,3.8,5,7.1,6.7,10c0.6-9.5,2.2-15.3,3.8-18.6v19.2v6.9c0.8,2.1,1.5,4.4,1.5,6.8c0,1.7-0.3,3.2-1,4.6
		c-0.1,0.3-0.3,0.6-0.5,0.9v48.8c0,4,3.2,7.2,7.2,7.2c4,0,7.2-3.2,7.2-7.2V135h2.7v52.5c0,4,3.2,7.2,7.2,7.2c4,0,7.2-3.2,7.2-7.2
		v-57v-1.7c-16.4-17.6-27.6-37-30.3-41.9c-0.5,0.2-1.1,0.4-1.6,0.7c-3.1,1.5-6.5,4.9-8.9,10.9c-1,2.5-1.8,5.5-2.5,9
		C229.4,107.9,229.8,108.4,230.2,108.9z"/>
	<path d="M227.4,129.2c0,0.2,0,0.3,0,0.5c0.1,0,0.2,0,0.3,0.1C227.6,129.6,227.5,129.4,227.4,129.2z"/>
	<path d="M251.6,99.1c5,7.7,12.1,17.4,20.5,26.8v-6.3v-19.2c0.3,0.7,0.7,1.5,1,2.5c1.6,4.5,3,12,3,23.6c0,3.2-0.1,6.7-0.3,10.6
		c-0.1,2.6,1.8,4.8,4.4,4.9c0.1,0,0.2,0,0.3,0c2.4,0,4.5-1.9,4.6-4.4c0.2-4,0.3-7.7,0.3-11.1c0-17.5-2.8-27.3-6.6-33.1
		c-1.9-2.9-4.1-4.8-6.2-5.8c-2.1-1-3.9-1.2-4.9-1.2c0,0,0,0,0,0c0,0,0,0-0.1,0h-22.5c0,0-0.1,0-0.1,0c0,0,0,0,0,0
		c-0.3,0-0.8,0-1.3,0.1C245.2,88.7,247.8,93.3,251.6,99.1z"/>
	<circle cx="256.5" cy="69.9" r="13.1"/>
	<path d="M39.4,150.2v18.9v98c0,6.8,5.5,12.4,12.4,12.4c6.8,0,12.4-5.5,12.4-12.4v-90.3h4.6v90.3c0,6.8,5.5,12.4,12.4,12.4
		c6.8,0,12.4-5.5,12.4-12.4v-98v-18.9v-33c0.6,1.2,1.2,2.6,1.8,4.2c2.8,7.8,5.2,20.6,5.2,40.6c0,5.5-0.2,11.6-0.6,18.2
		c-0.3,4.4,3.1,8.2,7.5,8.5c0.2,0,0.3,0,0.5,0c4.2,0,7.7-3.3,8-7.5c0.4-6.9,0.6-13.3,0.6-19.2c0-30.2-4.9-46.9-11.4-56.9
		c-3.3-5-7.1-8.2-10.7-10c-3.4-1.7-6.5-2.1-8.3-2.1c-0.1,0-0.2,0-0.3,0h-4.7l-2.5,19.2l-9.8-11.8l6.7-7.5H57.3l6.7,7.5l-9.8,11.8
		L51.8,93h-4.7c-0.3,0-0.6,0-0.9,0.1c-3.5,0-7.2,0.3-10.7,0.3c-1,0-2,0.1-3,0.1c-5.7,0.1-10.7-0.8-13-2.2c-1.2-0.7-1.8-1.4-2.5-2.5
		c-0.6-1.1-1.2-2.9-1.2-6c0-3.3,0.7-8.1,2.6-14.2c1.3-4.2-1.1-8.7-5.3-10c-0.1,0-0.1,0-0.2,0V37.7c2.2-3.5,7.8-9.8,17.5-4
		c26.4,15.7,28-21,28-21s-13.8,7.7-23.8-1.3c-8.5-7.6-18.7-3.3-21.7-1.8V6.4H9.4v52c-2.8,0.5-5.3,2.6-6.2,5.5
		C1.1,71.1,0,77.3,0,82.8c0,5,1,9.6,3,13.5c3.1,5.9,8.6,9.5,13.9,11.1c5.3,1.7,10.6,2,15.7,2c0.3,0,0.5,0,0.8,0c2.1,0,4.1-0.1,6-0.2
		L39.4,150.2L39.4,150.2z"/>
	<path d="M70.1,87c10.7-1.8,18.8-11,18.8-22.2c0-12.4-10.1-22.5-22.5-22.5c-12.4,0-22.5,10.1-22.5,22.5c0,11.2,8.2,20.4,18.8,22.2
		c1.2,0.2,2.4,0.3,3.7,0.3S68.9,87.2,70.1,87z"/>
	<path d="M183.7,135.6c-1-10.1-3.3-16.5-6.1-20.8c-1.9-2.9-4.1-4.8-6.2-5.8c-2.1-1-3.9-1.2-4.9-1.2c0,0,0,0,0,0c0,0-0.1,0-0.1,0h-4
		c1.8,7.7,2.3,14.8,2.3,20.1c0,3.2-0.2,5.7-0.3,7.4V146H146v-10.7c-0.2-1.6-0.3-4.2-0.3-7.4c0-5.3,0.5-12.4,2.3-20.1h-4
		c0,0-0.1,0-0.1,0c0,0,0,0,0,0c-1,0-2.8,0.2-4.9,1.2c-3.1,1.5-6.5,4.9-8.9,10.9c-2.4,6-4,14.8-4,27.9c0,3.4,0.1,7.1,0.3,11.1
		c0.1,2.5,2.2,4.4,4.6,4.4c0.1,0,0.2,0,0.3,0c2.6-0.1,4.5-2.4,4.4-4.9c-0.2-3.9-0.3-7.4-0.3-10.6c0-14.1,2-22,4-26.1v19.2v11v57
		c0,4,3.2,7.2,7.2,7.2c4,0,7.2-3.2,7.2-7.2v-52.5h2.7V209c0,4,3.2,7.2,7.2,7.2c4,0,7.2-3.2,7.2-7.2v-57v-11v-19.2
		c0.3,0.7,0.7,1.5,1,2.5c1.6,4.5,3,12,3,23.6c0,3.2-0.1,6.7-0.3,10.6c-0.1,1.7,0.7,3.2,2,4.1c0.5-8.7,1.8-15.6,3.9-21.1
		C181.6,139.2,182.6,137.2,183.7,135.6z"/>
	<path d="M147.4,128c0,2.7,0.1,4.9,0.3,6.4h15.1c0.1-1.6,0.3-3.8,0.3-6.4c0-5.3-0.5-12.4-2.4-20.1h-10.8
		C147.9,115.5,147.4,122.7,147.4,128z"/>
	<circle cx="155.2" cy="91.4" r="13.1"/>
	<circle cx="155.2" cy="140.5" r="3.3"/>
	<path d="M200.8,106.8h17.9c-2.3-3.7-6.4-6.2-11.1-6.2c-7.2,0-13.1,5.9-13.1,13.1c0,7.2,5.9,13.1,13.1,13.1c4.9,0,9.1-2.7,11.4-6.6
		h-18.1L200.8,106.8L200.8,106.8z"/>
	<circle cx="211.9" cy="113.5" r="3.6"/>
	<path d="M240.2,133.2c0-3-1.1-5.8-2.9-9.5c-1.9-3.7-4.7-8.1-8.7-13.7c-1.5-2.1-4.4-2.5-6.5-1c-2.1,1.5-2.5,4.4-1,6.5
		c3.9,5.3,6.4,9.4,8,12.4c1,1.9,1.5,3.3,1.7,4.2c-1.3,0-3.4-0.4-5.5-0.9c-1.1-0.3-2.2-0.5-3.3-0.7c-0.9-0.2-1.8-0.3-2.7-0.4
		c-0.2,0-0.3,0-0.5,0h-22.5c0,0-0.1,0-0.1,0c0,0,0,0,0,0c-1,0-2.8,0.2-4.9,1.2c-3.1,1.6-6.5,4.9-8.9,10.9c-2.4,6-4,14.8-4,27.9
		c0,3.4,0.1,7.1,0.3,11.1c0.1,2.5,2.2,4.4,4.6,4.4c0.1,0,0.2,0,0.3,0c2.6-0.1,4.5-2.4,4.4-4.9c-0.2-3.9-0.3-7.4-0.3-10.6
		c0-14.1,2-22,4-26.1v19.2v11v57c0,4,3.2,7.2,7.2,7.2s7.2-3.2,7.2-7.2v-52.5h2.7v52.5c0,4,3.2,7.2,7.2,7.2c4,0,7.2-3.2,7.2-7.2v-57
		v-11v-23c0.5,0.1,1.1,0.3,1.7,0.4c1.9,0.4,3.9,0.8,6,0.8c1.8,0,3.8-0.2,5.9-1.6c1-0.7,2-1.7,2.5-3
		C240,135.7,240.2,134.4,240.2,133.2z"/>
</g>
</svg>
