<?xml version="1.0" encoding="utf-8"?>
<!-- Generator: Adobe Illustrator 22.0.1, SVG Export Plug-In . SVG Version: 6.00 Build 0)  -->
<svg version="1.1" id="Layer_1" xmlns="http://www.w3.org/2000/svg" xmlns:xlink="http://www.w3.org/1999/xlink" x="0px" y="0px"
	 viewBox="0 0 20.4 20.4" style="enable-background:new 0 0 20.4 20.4;" xml:space="preserve">
<style type="text/css">
	.st0{fill:none;stroke:#000000;stroke-linejoin:round;stroke-miterlimit:10;}
	.st1{fill:none;stroke:#000000;stroke-width:2;stroke-miterlimit:10;}
</style>
<circle cx="11.2" cy="2.2" r="2"/>
<path d="M9.1,4.6l2.6,2l-1.3,4.6l1.7,2.3l-0.8,1.7l-3.2-2.6c-0.6-0.5-0.9-1.3-0.7-2.1L9.1,4.6z"/>
<line class="st0" x1="16.7" y1="5.2" x2="16.7" y2="20.2"/>
<path class="st1" d="M9.2,11.2l2.4,2.8c0.4,0.5,0.6,1.1,0.6,1.7c0,1.6,0,4.5,0,4.5"/>
<path class="st1" d="M8.8,5.5l1.3,0.4c0.8,0.2,1.5,0.6,2.1,1.2L13,7.9c0.4,0.4,0.9,0.5,1.4,0.4c1-0.2,2.5-0.5,2.5-0.5"/>
<polygon points="7.4,20.2 9.2,15.2 7.6,13.8 5.3,20.2 "/>
<path d="M4.4,10.9L4.4,10.9c-0.9-0.3-1.5-1.3-1.2-2.2l0.6-2c0.6-1.8,2.6-2.8,4.4-2.3l0,0L6.6,9.7C6.3,10.7,5.4,11.2,4.4,10.9z"/>
</svg>
