<?xml version="1.0" encoding="utf-8"?>
<!-- Generator: Adobe Illustrator 22.0.1, SVG Export Plug-In . SVG Version: 6.00 Build 0)  -->
<svg version="1.1" id="Layer_1" xmlns="http://www.w3.org/2000/svg" xmlns:xlink="http://www.w3.org/1999/xlink" x="0px" y="0px"
	 viewBox="0 0 78.9 65.1" style="enable-background:new 0 0 78.9 65.1;" xml:space="preserve">
<style type="text/css">
	.st0{fill:#757575;}
</style>
<title>09</title>
<path class="st0" d="M39.5,51.4c2.2,0,4-1.8,4-4V13.2l12.6,12.5c1.6,1.6,4.1,1.6,5.7,0s1.6-4.1,0-5.7L42.3,0.7l0,0l0,0
	c-0.8-0.7-1.8-1.2-2.8-1.2l0,0c-1,0-2,0.4-2.8,1.1l0,0l0,0L17.3,20.1c-1.6,1.6-1.6,4.1,0,5.7s4.1,1.6,5.7,0l12.5-12.6v34.2
	C35.5,49.6,37.3,51.4,39.5,51.4z"/>
<path class="st0" d="M74.3,35.3c-2.2,0-4,1.8-4,4v13.8c0,2.2-1.8,4-4,4H12.7c-2.2,0-4-1.8-4-4V39.3c0-2.2-1.8-4-4-4s-4,1.8-4,4v13.8
	c0,6.6,5.4,12,12,12h53.5c6.6,0,12-5.4,12-12V39.3C78.3,37.1,76.5,35.3,74.3,35.3z"/>
</svg>
