<?xml version="1.0" encoding="utf-8"?>
<!-- Generator: Adobe Illustrator 21.1.0, SVG Export Plug-In . SVG Version: 6.00 Build 0)  -->
<svg version="1.1" id="Layer_1" xmlns="http://www.w3.org/2000/svg" xmlns:xlink="http://www.w3.org/1999/xlink" x="0px" y="0px"
	 viewBox="0 0 100 125" style="enable-background:new 0 0 100 125;" xml:space="preserve">
<title>09</title>
<path d="M50,69.1c2.2,0,4-1.8,4-4V30.9l12.6,12.5c1.6,1.6,4.1,1.6,5.7,0c1.6-1.6,1.6-4.1,0-5.7L52.8,18.4l0,0l0,0
	c-0.8-0.7-1.8-1.2-2.8-1.2l0,0c-1,0-2,0.4-2.8,1.1l0,0l0,0L27.8,37.8c-1.6,1.6-1.6,4.1,0,5.7s4.1,1.6,5.7,0L46,30.9v34.2
	C46,67.3,47.8,69.1,50,69.1z"/>
<path d="M84.8,53c-2.2,0-4,1.8-4,4v13.8c0,2.2-1.8,4-4,4H23.2c-2.2,0-4-1.8-4-4V57c0-2.2-1.8-4-4-4s-4,1.8-4,4v13.8
	c0,6.6,5.4,12,12,12h53.5c6.6,0,12-5.4,12-12V57C88.8,54.8,87,53,84.8,53z"/>
</svg>
